<svg xmlns="http://www.w3.org/2000/svg" height="1024" preserveAspectRatio="none" style="display: block;" version="1.1" viewBox="0 0 2048 2048" width="1024">
<path d="M 0 0 L 2048 0 L 2048 2048 L 0 2048 L 0 0 z" fill="rgb(23,31,42)" transform="translate(0,0)"></path>
<path d="M 1023.74 381.964 L 1123.06 381.954 C 1139.62 381.967 1157.37 381.397 1173.79 382.95 C 1194.34 384.893 1190 413.529 1189.99 428.214 L 1189.91 486.954 L 1312.08 486.982 C 1332.65 486.995 1356 485.863 1376.04 488.634 C 1393.94 491.109 1410.04 511.532 1410.38 529.404 C 1410.7 546.248 1410.63 562.92 1410.5 579.729 L 1409.95 670.622 L 1410.17 956.198 L 1409.97 1385.14 L 1410.1 1536.35 C 1410.14 1561.57 1410.48 1586.75 1410.18 1612 C 1410.39 1627.03 1402.49 1641.85 1391.59 1651.86 C 1384.28 1658.58 1371.69 1665.66 1361.77 1666.29 C 1340.97 1667.62 1318.82 1666.87 1297.98 1666.81 L 1169.88 1666.72 C 1105.58 1666.45 1041.29 1666.59 977.002 1667.12 C 951.536 1667.12 912.03 1668.37 887.528 1666.82 L 748.786 1667 C 727.573 1667.02 702.185 1667.98 680.996 1665.71 C 672.725 1664.82 658.698 1656.02 652.583 1650.12 C 633.404 1631.63 636.418 1609.33 636.518 1584.97 L 636.78 1524.61 L 637.021 1316.2 L 636.986 622.083 L 636.971 563.013 C 636.978 539.771 634.052 518.24 652.439 500.489 C 658.82 494.208 666.896 489.928 675.676 488.175 C 686.816 485.988 723.152 486.838 736.957 486.849 L 858.095 487.171 L 858.043 430.954 C 858.04 421.694 857.587 406.577 858.758 397.881 C 860.739 389.784 866.505 383.172 875.023 382.543 C 891.691 381.311 909.116 381.889 925.871 381.936 L 1023.74 381.964 z" fill="rgb(19,126,39)" transform="translate(0,0)"></path>
<path d="M 858.758 397.881 C 860.739 389.784 866.505 383.172 875.023 382.543 C 891.691 381.311 909.116 381.889 925.871 381.936 L 1023.74 381.964 L 1023.36 449.644 C 1023.31 460.924 1023.71 476.916 1022.92 487.886 C 1022.32 512.844 1022.88 537.995 1022.27 562.793 C 1021.98 658.478 1021.07 756.892 1022.46 852.417 L 1021.53 853.395 C 1023.13 862.397 1022.81 886.891 1022.88 897.327 L 1023.1 985.607 C 1022.99 1090.4 1021.57 1197.54 1022.9 1302.13 L 1021.38 1304.95 C 1023.24 1330.34 1022.01 1371.6 1022.01 1398.34 L 1022.21 1589.07 L 1022.7 1666.31 L 934.923 1666.3 C 923.44 1666.27 898.337 1665.64 887.528 1666.82 L 748.786 1667 C 727.573 1667.02 702.185 1667.98 680.996 1665.71 C 672.725 1664.82 658.698 1656.02 652.583 1650.12 C 633.404 1631.63 636.418 1609.33 636.518 1584.97 L 636.78 1524.61 L 637.021 1316.2 L 636.986 622.083 L 636.971 563.013 C 636.978 539.771 634.052 518.24 652.439 500.489 C 658.82 494.208 666.896 489.928 675.676 488.175 C 686.816 485.988 723.152 486.838 736.957 486.849 L 858.095 487.171 L 858.043 430.954 C 858.04 421.694 857.587 406.577 858.758 397.881 z" fill="rgb(31,189,53)" transform="translate(0,0)"></path>
<path d="M 858.758 397.881 C 860.739 389.784 866.505 383.172 875.023 382.543 C 891.691 381.311 909.116 381.889 925.871 381.936 L 1023.74 381.964 L 1023.36 449.644 C 1023.31 460.924 1023.71 476.916 1022.92 487.886 C 1022.32 512.844 1022.88 537.995 1022.27 562.793 C 923.092 563.522 823.915 563.634 724.739 563.126 C 723.554 663.913 723.335 764.709 724.083 865.5 C 723.296 986.634 723.218 1107.77 723.846 1228.91 C 724.119 1301.94 724.001 1374.98 723.493 1448.02 C 723.21 1491.97 721.733 1545.33 723.546 1588.95 L 1022.21 1589.07 L 1022.7 1666.31 L 934.923 1666.3 C 923.44 1666.27 898.337 1665.64 887.528 1666.82 L 748.786 1667 C 727.573 1667.02 702.185 1667.98 680.996 1665.71 C 672.725 1664.82 658.698 1656.02 652.583 1650.12 C 633.404 1631.63 636.418 1609.33 636.518 1584.97 L 636.78 1524.61 L 637.021 1316.2 L 636.986 622.083 L 636.971 563.013 C 636.978 539.771 634.052 518.24 652.439 500.489 C 658.82 494.208 666.896 489.928 675.676 488.175 C 686.816 485.988 723.152 486.838 736.957 486.849 L 858.095 487.171 L 858.043 430.954 C 858.04 421.694 857.587 406.577 858.758 397.881 z" fill="rgb(90,185,113)" transform="translate(0,0)"></path>
<path d="M 858.758 397.881 C 860.739 389.784 866.505 383.172 875.023 382.543 C 891.691 381.311 909.116 381.889 925.871 381.936 L 1023.74 381.964 L 1023.36 449.644 C 1023.31 460.924 1023.71 476.916 1022.92 487.886 C 969.588 489.03 912.628 488.016 859.018 488.003 C 859.042 458.805 859.691 426.858 858.758 397.881 z" fill="rgb(122,250,88)" transform="translate(0,0)"></path>
<path d="M 1021.53 853.395 C 1023.13 862.397 1022.81 886.891 1022.88 897.327 L 1023.1 985.607 C 1022.99 1090.4 1021.57 1197.54 1022.9 1302.13 L 1021.38 1304.95 L 922.092 1426.1 C 910.273 1440.5 898.672 1455.62 886.51 1469.64 C 897.32 1434.26 911.509 1397.15 923.912 1362.13 C 943.137 1308.33 961.75 1254.3 979.747 1200.08 C 985.82 1181.92 992.998 1163.37 998.358 1145.09 L 786.586 1145.37 C 799.271 1128.13 815.759 1109.22 829.305 1092.46 L 901.199 1002.8 C 919.395 980.073 937.688 957.284 956.061 934.691 C 977.214 908.68 999.357 878.214 1021.53 853.395 z" fill="rgb(240,229,208)" transform="translate(0,0)"></path>
<path d="M 1023.74 381.964 L 1123.06 381.954 C 1139.62 381.967 1157.37 381.397 1173.79 382.95 C 1194.34 384.893 1190 413.529 1189.99 428.214 L 1189.91 486.954 L 1312.08 486.982 C 1332.65 486.995 1356 485.863 1376.04 488.634 C 1393.94 491.109 1410.04 511.532 1410.38 529.404 C 1410.7 546.248 1410.63 562.92 1410.5 579.729 L 1409.95 670.622 L 1410.17 956.198 L 1409.97 1385.14 L 1410.1 1536.35 C 1410.14 1561.57 1410.48 1586.75 1410.18 1612 C 1410.39 1627.03 1402.49 1641.85 1391.59 1651.86 C 1384.28 1658.58 1371.69 1665.66 1361.77 1666.29 C 1340.97 1667.62 1318.82 1666.87 1297.98 1666.81 L 1169.88 1666.72 C 1105.58 1666.45 1041.29 1666.59 977.002 1667.12 C 951.536 1667.12 912.03 1668.37 887.528 1666.82 C 898.337 1665.64 923.44 1666.27 934.923 1666.3 L 1022.7 1666.31 L 1022.21 1589.07 C 1124.63 1589.78 1229.08 1588.06 1331.07 1589.46 L 1331 903.827 L 1330.36 677.958 L 1330.04 606.587 C 1329.98 592.893 1330.4 576.612 1329.18 563.275 C 1317.92 562.305 1301.55 562.749 1289.86 562.753 L 1221.62 562.776 L 1022.27 562.793 C 1022.88 537.995 1022.32 512.844 1022.92 487.886 C 1023.71 476.916 1023.31 460.924 1023.36 449.644 L 1023.74 381.964 z" fill="rgb(70,98,104)" transform="translate(0,0)"></path>
<path d="M 1023.74 381.964 L 1123.06 381.954 C 1139.62 381.967 1157.37 381.397 1173.79 382.95 C 1194.34 384.893 1190 413.529 1189.99 428.214 L 1189.91 486.954 C 1180.18 487.579 1170.6 487.318 1160.88 487.561 C 1115.02 488.709 1068.71 486.884 1022.92 487.886 C 1023.71 476.916 1023.31 460.924 1023.36 449.644 L 1023.74 381.964 z" fill="rgb(31,189,53)" transform="translate(0,0)"></path>
<path d="M 1022.46 852.417 C 1039.97 834.171 1062.57 805.283 1079.07 785.391 L 1175.08 669.388 C 1168.01 691.023 1158.83 713.731 1150.94 735.239 L 1110.86 846.958 L 1069.61 966.013 C 1062.4 986.847 1055.03 1009.48 1047.05 1029.86 C 1114.98 1029.34 1184.64 1028.2 1252.5 1029.21 C 1228.22 1060.12 1203.72 1086.82 1179.11 1116.68 L 1109.11 1200.48 C 1081.66 1233.52 1051.47 1270.25 1022.9 1302.13 C 1021.57 1197.54 1022.99 1090.4 1023.1 985.607 L 1022.88 897.327 C 1022.81 886.891 1023.13 862.397 1021.53 853.395 L 1022.46 852.417 z" fill="rgb(193,180,158)" transform="translate(0,0)"></path>
<metadata><recraft-signature>{"signed_by": "recraft", "signature_b64": "fbDU8dHN0EQ35U0K1ESJTuCVFc4dEhekpHT9AcyBlEjnB/o2wsUBtb46rRMSa+oFoLtf98Y3coT+kZn6gzjcDQ==", "signing_algo": "Ed25519", "generation_timestamp": 1777482746, "identifier": "7f4ae190-82c3-4f08-8b9a-c41467db1e9a"}</recraft-signature></metadata></svg>