<svg xmlns="http://www.w3.org/2000/svg" height="1024" preserveAspectRatio="none" style="display: block;" version="1.1" viewBox="0 0 2048 2048" width="1024">
<defs>
	<linearGradient gradientUnits="userSpaceOnUse" id="Gradient1" x1="1502.58" x2="1376.48" y1="1195.68" y2="1160.18">
		<stop class="stop0" offset="0" stop-color="rgb(1,175,254)" stop-opacity="1"></stop>
		<stop class="stop1" offset="1" stop-color="rgb(1,215,254)" stop-opacity="1"></stop>
	</linearGradient>
	<linearGradient gradientUnits="userSpaceOnUse" id="Gradient2" x1="1454.25" x2="1201.58" y1="765.049" y2="655.17">
		<stop class="stop0" offset="0" stop-color="rgb(29,170,177)" stop-opacity="1"></stop>
		<stop class="stop1" offset="1" stop-color="rgb(20,221,219)" stop-opacity="1"></stop>
	</linearGradient>
	<linearGradient gradientUnits="userSpaceOnUse" id="Gradient3" x1="840.475" x2="830.399" y1="1136.28" y2="1048.62">
		<stop class="stop0" offset="0" stop-color="rgb(4,135,229)" stop-opacity="1"></stop>
		<stop class="stop1" offset="1" stop-color="rgb(5,176,245)" stop-opacity="1"></stop>
	</linearGradient>
	<linearGradient gradientUnits="userSpaceOnUse" id="Gradient4" x1="1050.74" x2="1000.71" y1="1268.07" y2="784.679">
		<stop class="stop0" offset="0" stop-color="rgb(15,3,154)" stop-opacity="1"></stop>
		<stop class="stop1" offset="1" stop-color="rgb(9,173,240)" stop-opacity="1"></stop>
	</linearGradient>
	<linearGradient gradientUnits="userSpaceOnUse" id="Gradient5" x1="849.463" x2="1085.49" y1="673.544" y2="1148.12">
		<stop class="stop0" offset="0" stop-color="rgb(195,104,133)" stop-opacity="1"></stop>
		<stop class="stop1" offset="1" stop-color="rgb(148,84,151)" stop-opacity="1"></stop>
	</linearGradient>
	<linearGradient gradientUnits="userSpaceOnUse" id="Gradient6" x1="1155.69" x2="893.198" y1="1308.92" y2="743.989">
		<stop class="stop0" offset="0" stop-color="rgb(2,0,49)" stop-opacity="1"></stop>
		<stop class="stop1" offset="1" stop-color="rgb(10,30,150)" stop-opacity="1"></stop>
	</linearGradient>
</defs>
<path d="M 0 0 L 2048 0 L 2048 2048 L 0 2048 L 0 0 z" fill="rgb(4,7,50)" transform="translate(0,0)"></path>
<path d="M 737.816 1336.79 C 725.019 1344.24 705.612 1315.55 704.243 1305.14 C 702.027 1288.28 702.985 1267.1 702.953 1249.82 L 702.766 1137.54 L 702.287 882.972 L 702.716 802.294 C 702.777 786.97 702.312 766.316 703.234 751.362 C 703.75 743.01 706.222 734.896 710.453 727.677 C 730.558 692.762 775.804 701.08 810.914 701.022 L 953.721 701.001 L 1182.52 700.856 C 1220.41 700.885 1258.28 700.815 1296.16 701.278 C 1321.55 701.588 1338.8 714.776 1345.43 739.766 C 1345.4 777.512 1345.61 815.258 1346.05 853.002 L 1346.41 1148.95 L 1347.06 1247.93 C 1347.11 1261.97 1348 1283.55 1345.97 1296.94 C 1342.53 1319.58 1316.74 1347.29 1293.36 1349.01 C 1275.08 1350.84 1255.77 1350.23 1237.5 1350.25 L 1137.99 1350.4 C 1019 1351.2 900 1351.11 781.008 1350.13 C 768.577 1349.91 758.455 1349.05 747.536 1342.71 C 744.73 1341.08 740.146 1337.76 737.816 1336.79 z" fill="url(#Gradient6)" transform="translate(0,0)"></path>
<path d="M 737.816 1336.79 C 725.019 1344.24 705.612 1315.55 704.243 1305.14 C 702.027 1288.28 702.985 1267.1 702.953 1249.82 L 702.766 1137.54 L 702.287 882.972 L 702.716 802.294 C 702.777 786.97 702.312 766.316 703.234 751.362 C 703.75 743.01 706.222 734.896 710.453 727.677 C 730.558 692.762 775.804 701.08 810.914 701.022 L 953.721 701.001 L 1182.52 700.856 C 1220.41 700.885 1258.28 700.815 1296.16 701.278 C 1321.55 701.588 1338.8 714.776 1345.43 739.766 C 1340.49 744.078 1335.17 748.916 1329.98 752.83 C 1325.07 754.394 1312.78 765.967 1312.06 770.784 C 1310.57 798.735 1312.04 831.716 1311.33 860.526 C 1310.64 852.083 1311.03 837.831 1311.02 828.889 L 1311 773.033 C 1304.84 778.868 1276.83 810.997 1273.29 817.415 C 1256.46 784.977 1236.17 771.362 1199.53 772.063 C 1178.49 772.466 1156.32 771.993 1135.19 771.987 L 991.238 771.959 L 895.157 771.956 C 876.743 771.952 857.71 771.592 839.391 772.465 C 810.506 773.842 783.17 798.103 775.616 825.532 C 771.667 839.869 773.42 856.32 772.899 871.083 C 772.634 879.816 772.832 889.006 772.804 897.771 L 772.459 1005.1 L 771.957 1145.83 C 771.892 1170.53 771.182 1196.3 772.452 1220.89 C 773.618 1243.47 794.843 1262.32 813.065 1272.39 C 798.761 1283.68 773.663 1305.56 759.081 1313.8 L 759.07 1314.94 C 752.98 1322.97 745.323 1330.05 737.816 1336.79 z" fill="url(#Gradient5)" transform="translate(0,0)"></path>
<path d="M 737.816 1336.79 C 725.019 1344.24 705.612 1315.55 704.243 1305.14 C 702.027 1288.28 702.985 1267.1 702.953 1249.82 L 702.766 1137.54 L 702.287 882.972 L 702.716 802.294 C 702.777 786.97 702.312 766.316 703.234 751.362 C 703.75 743.01 706.222 734.896 710.453 727.677 C 730.558 692.762 775.804 701.08 810.914 701.022 L 953.721 701.001 L 1182.52 700.856 C 1220.41 700.885 1258.28 700.815 1296.16 701.278 C 1321.55 701.588 1338.8 714.776 1345.43 739.766 C 1340.49 744.078 1335.17 748.916 1329.98 752.83 C 1322.99 743.048 1319.51 725.37 1303.47 723.618 C 1288.19 721.948 1271.13 722.79 1255.65 722.849 L 1158.34 722.898 C 1067.27 722.248 976.202 722.106 885.131 722.471 C 842.273 722.479 799.379 721.838 756.542 722.295 C 740.184 722.47 724.883 733.934 723.545 750.712 C 722.612 762.409 723.686 776.842 723.8 788.817 L 723.794 868.192 L 723.642 1214.87 C 723.56 1229.48 721.346 1304.02 726.035 1310.97 C 727.698 1313.44 728.291 1313.4 731.035 1313.86 C 739.889 1310.65 743.633 1302.68 751.839 1303.6 C 756.837 1306 757.638 1308.7 759.081 1313.8 L 759.07 1314.94 C 752.98 1322.97 745.323 1330.05 737.816 1336.79 z" fill="rgb(254,253,254)" transform="translate(0,0)"></path>
<path d="M 1345.43 739.766 C 1345.4 777.512 1345.61 815.258 1346.05 853.002 L 1346.41 1148.95 L 1347.06 1247.93 C 1347.11 1261.97 1348 1283.55 1345.97 1296.94 C 1342.53 1319.58 1316.74 1347.29 1293.36 1349.01 C 1275.08 1350.84 1255.77 1350.23 1237.5 1350.25 L 1137.99 1350.4 C 1019 1351.2 900 1351.11 781.008 1350.13 C 768.577 1349.91 758.455 1349.05 747.536 1342.71 C 744.73 1341.08 740.146 1337.76 737.816 1336.79 C 745.323 1330.05 752.98 1322.97 759.07 1314.94 L 759.081 1313.8 C 773.663 1305.56 798.761 1283.68 813.065 1272.39 C 837.413 1284.19 872.079 1280.46 899.295 1280.43 L 1012.6 1280.24 L 1141.88 1280.38 C 1167.9 1280.42 1200.69 1282.34 1225.84 1277.57 C 1250.45 1272.91 1275.92 1243.55 1276.98 1218.42 C 1278.01 1193.95 1277.65 1168.04 1277.62 1143.08 L 1277.13 1003.6 L 1276.97 901.121 C 1276.96 878.54 1278.92 837.795 1273.29 817.415 C 1276.83 810.997 1304.84 778.868 1311 773.033 L 1311.02 828.889 C 1311.03 837.831 1310.64 852.083 1311.33 860.526 C 1312.04 831.716 1310.57 798.735 1312.06 770.784 C 1312.78 765.967 1325.07 754.394 1329.98 752.83 C 1335.17 748.916 1340.49 744.078 1345.43 739.766 z" fill="rgb(63,15,94)" transform="translate(0,0)"></path>
<path d="M 1312.06 770.784 C 1314.02 780.621 1313.01 833.3 1312.96 845.324 L 1312.86 997.859 L 1312.91 1156.79 C 1312.99 1184.3 1313.7 1213.12 1312.52 1240.5 C 1310.97 1276.15 1272.58 1310.18 1239.14 1316.34 C 1222.99 1319.32 1197.47 1318.05 1180.41 1318.03 L 1082.87 1317.88 L 886.084 1317.81 C 864.496 1317.81 775.796 1320.13 759.07 1314.94 L 759.081 1313.8 C 773.663 1305.56 798.761 1283.68 813.065 1272.39 C 837.413 1284.19 872.079 1280.46 899.295 1280.43 L 1012.6 1280.24 L 1141.88 1280.38 C 1167.9 1280.42 1200.69 1282.34 1225.84 1277.57 C 1250.45 1272.91 1275.92 1243.55 1276.98 1218.42 C 1278.01 1193.95 1277.65 1168.04 1277.62 1143.08 L 1277.13 1003.6 L 1276.97 901.121 C 1276.96 878.54 1278.92 837.795 1273.29 817.415 C 1276.83 810.997 1304.84 778.868 1311 773.033 L 1311.02 828.889 C 1311.03 837.831 1310.64 852.083 1311.33 860.526 C 1312.04 831.716 1310.57 798.735 1312.06 770.784 z" fill="rgb(96,50,129)" transform="translate(0,0)"></path>
<path d="M 800.087 911.834 C 799.794 890.627 800.11 869.172 800.063 847.929 C 800.03 833.198 803.196 819.764 814.365 809.194 C 830.056 794.346 851.85 797.081 872.023 797.619 C 903.897 798.471 937.343 797.97 969.318 797.962 L 1122.79 798.302 L 1182.58 798.614 C 1203.3 798.729 1222.77 795.354 1238.27 812.156 C 1245.62 820.222 1249.48 830.87 1249 841.771 C 1248.91 842.62 1248.82 843.469 1248.74 844.317 L 1249.88 1109.18 C 1249.78 1129.54 1249.83 1149.89 1250 1170.25 C 1250.06 1178.66 1250.19 1187.74 1250.13 1196.09 C 1249.68 1257.36 1205.69 1253.31 1163.82 1253.23 L 1087.89 1253.1 C 1006.77 1253.06 925.096 1253.24 843.911 1252.96 C 843.822 1252.96 843.734 1252.95 843.646 1252.95 C 818.773 1253.92 797.69 1231.04 801.588 1205.83 C 799.788 1196.52 800.215 1173.67 800.172 1163.16 L 800.015 1135.97 C 799.095 1108.78 799.861 1077.71 799.917 1050.23 L 800.024 1023.12 L 800.161 982.257 C 798.871 962.767 800.215 932.472 800.087 911.834 z" fill="url(#Gradient4)" transform="translate(0,0)"></path>
<path d="M 800.087 911.834 C 799.794 890.627 800.11 869.172 800.063 847.929 C 800.03 833.198 803.196 819.764 814.365 809.194 C 830.056 794.346 851.85 797.081 872.023 797.619 L 872.505 908.367 L 871.825 910.836 C 866.656 912.875 809.584 911.874 800.087 911.834 z" fill="rgb(11,237,238)" transform="translate(0,0)"></path>
<path d="M 799.917 1050.23 C 823.753 1050.25 848.22 1049.99 872.002 1050.33 L 872.049 1135.37 C 848.036 1135.28 824.023 1135.48 800.015 1135.97 C 799.095 1108.78 799.861 1077.71 799.917 1050.23 z" fill="url(#Gradient3)" transform="translate(0,0)"></path>
<path d="M 800.66 939.178 L 872.114 939.626 C 872.143 967.453 871.974 995.28 871.608 1023.1 L 800.024 1023.12 L 800.161 982.257 C 801.161 969.088 800.837 952.529 800.66 939.178 z" fill="rgb(5,219,251)" transform="translate(0,0)"></path>
<path d="M 800.172 1163.16 C 824.168 1163.15 847.847 1163.84 871.903 1163.57 L 871.967 1235.86 C 855.939 1235.94 840.642 1237.3 825.512 1232.2 C 811.857 1220.51 812.092 1225.58 801.588 1205.83 C 799.788 1196.52 800.215 1173.67 800.172 1163.16 z" fill="rgb(6,138,208)" transform="translate(0,0)"></path>
<path d="M 801.588 1205.83 C 812.092 1225.58 811.857 1220.51 825.512 1232.2 L 823.532 1232.32 C 818.593 1229.25 809.745 1222.44 804.765 1223 C 804.443 1226.69 809.324 1232.98 811.639 1235.83 C 822.154 1248.76 830.435 1248.34 843.646 1252.95 C 818.773 1253.92 797.69 1231.04 801.588 1205.83 z" fill="rgb(12,24,156)" transform="translate(0,0)"></path>
<path d="M 946.033 909.963 L 1121.18 909.996 C 1117.44 924.727 1108.62 941.762 1103.1 956.15 C 1090.84 988.102 1075.38 1020.24 1062.94 1051.81 L 1066.7 1056.87 C 1062.73 1063.47 1057.03 1072.32 1053.98 1079.14 L 1051.5 1078.88 C 1046.9 1086.72 1032.79 1123.36 1027.47 1134.87 L 988.903 1134.99 C 1015.16 1070.76 1039.09 1010.18 1067.05 946.184 L 946.12 946.175 L 946.033 909.963 z" fill="rgb(11,237,238)" transform="translate(0,0)"></path>
<path d="M 1062.94 1051.81 L 1066.7 1056.87 C 1062.73 1063.47 1057.03 1072.32 1053.98 1079.14 L 1051.5 1078.88 C 1054.59 1070.72 1059.46 1060.37 1062.94 1051.81 z" fill="rgb(12,24,156)" transform="translate(0,0)"></path>
<path d="M 1076.97 1042.86 C 1103.47 1044.33 1135.25 1043.73 1162.11 1043.74 L 1162.22 1080.01 L 1088.46 1079.5 C 1080.55 1079.44 1060.78 1079.9 1053.98 1079.14 C 1057.03 1072.32 1062.73 1063.47 1066.7 1056.87 C 1069.63 1052.77 1073.86 1046.5 1076.97 1042.86 z" fill="rgb(11,237,238)" transform="translate(0,0)"></path>
<path d="M 620.978 1214.95 L 678.982 1215.01 C 679.153 1231.36 679.095 1249.93 678.856 1266.25 C 678.405 1296.9 678.326 1320.71 701.619 1343.97 C 742.619 1384.93 783.787 1376.66 836.347 1376.82 C 836.327 1394.34 836.156 1411.86 835.835 1429.38 C 822.061 1429.78 807.158 1429.71 793.356 1429.74 L 736.071 1429.7 C 701.085 1429.63 673.2 1432.4 646.262 1405.18 C 635.047 1393.82 627.185 1379.59 623.544 1364.05 C 619.571 1347.51 620.853 1317.33 620.866 1299.1 L 620.978 1214.95 z" fill="rgb(4,154,198)" transform="translate(0,0)"></path>
<path d="M 1324.51 619.5 L 1325.58 619.488 C 1356.15 619.175 1378.01 623.313 1400.92 645.559 C 1432.98 676.704 1427.99 716.258 1428.03 757.448 L 1428.08 833.817 C 1409.81 834.095 1391.25 834.013 1372.96 834.099 L 1372.54 778.75 C 1372.17 747.762 1372.56 721.16 1348.79 697.203 C 1325.35 673.575 1296.92 676 1266.3 675.742 L 1214.34 675.519 C 1214.22 657.009 1214.38 638.498 1214.8 619.992 C 1250.44 619.082 1288.66 619.638 1324.51 619.5 z" fill="url(#Gradient2)" transform="translate(0,0)"></path>
<path d="M 789.661 619.5 C 804.139 619.43 818.611 619.244 833.079 619.771 L 833.204 675.107 L 775.233 674.985 C 745.242 674.948 722.309 674.65 699.373 697.782 C 674.798 722.567 677.745 748.242 677.707 780.095 L 677.695 833.992 L 664.501 833.932 L 620.867 834.068 L 620.617 757.156 C 620.488 714.507 615.129 679.634 648.225 647.322 C 677.174 619.059 701.571 619.83 738.435 619.666 L 789.661 619.5 z" fill="rgb(11,237,238)" transform="translate(0,0)"></path>
<path d="M 1372.99 1213.93 L 1427.97 1213.97 L 1428.16 1293.08 C 1428.18 1307.99 1428.24 1322.94 1428.02 1337.83 C 1427.43 1378.6 1395.47 1418.04 1355.85 1427.39 C 1342.44 1430.56 1328.64 1430.33 1314.95 1430.37 L 1269.25 1430.42 L 1211.83 1430.33 C 1211.57 1412.75 1211.75 1394.78 1211.73 1377.16 L 1264.71 1377.02 C 1297.26 1376.9 1326.01 1378.82 1351.5 1353.84 C 1376.45 1329.39 1373.19 1299.93 1373.09 1268.29 L 1372.99 1213.93 z" fill="rgb(6,138,208)" transform="translate(0,0)"></path>
<path d="M 902.012 619.239 C 930.487 618.885 959.574 619.159 988.101 619.123 L 987.955 675.473 L 902.008 675.177 L 902.012 619.239 z" fill="rgb(11,237,238)" transform="translate(0,0)"></path>
<path d="M 620.853 905.833 C 639.898 905.672 658.944 905.723 677.988 905.986 L 678.251 989.205 L 620.872 989.299 L 620.853 905.833 z" fill="rgb(18,183,195)" transform="translate(0,0)"></path>
<path d="M 1123.05 619.504 L 1145.18 619.422 L 1145.15 675.461 L 1084.15 675.276 L 1060.81 675.339 L 1060.81 619.816 C 1080.23 619.121 1103.36 619.569 1123.05 619.504 z" fill="rgb(11,237,238)" transform="translate(0,0)"></path>
<path d="M 1373.03 905.08 C 1390.67 905.151 1410.45 904.817 1427.91 905.812 C 1428.12 933.341 1427.98 960.871 1427.49 988.396 L 1373.26 988.522 C 1372.64 961.321 1373.08 932.417 1373.03 905.08 z" fill="rgb(18,183,195)" transform="translate(0,0)"></path>
<path d="M 904.025 1377.17 C 932.529 1377.15 961.894 1376.81 990.324 1377.44 C 990.573 1394.56 990.32 1412.24 990.294 1429.4 L 904.067 1429.32 L 904.025 1377.17 z" fill="rgb(6,138,208)" transform="translate(0,0)"></path>
<path d="M 1373.07 1058.87 C 1391.46 1058.69 1409.85 1058.7 1428.24 1058.89 C 1428.76 1085.77 1428.84 1112.66 1428.47 1139.55 C 1410.04 1139.28 1391.61 1139.26 1373.19 1139.49 C 1372.67 1113.16 1373.1 1085.32 1373.07 1058.87 z" fill="rgb(4,154,198)" transform="translate(0,0)"></path>
<path d="M 620.333 1060.93 L 678.358 1061 L 678.305 1137.95 C 659.155 1137.76 640.004 1137.7 620.854 1137.79 C 620.9 1112.17 620.726 1086.55 620.333 1060.93 z" fill="rgb(18,183,195)" transform="translate(0,0)"></path>
<path d="M 1061.27 1377.44 L 1142.22 1377.64 C 1142.27 1387.06 1142.96 1421.17 1141.65 1428.35 L 1140.11 1429.18 L 1059.3 1429.38 C 1059.03 1421.59 1058.25 1384.02 1059.55 1378.28 L 1061.27 1377.44 z" fill="rgb(6,138,208)" transform="translate(0,0)"></path>
<path d="M 1017.82 469.245 C 1036.28 466.889 1053.16 479.924 1055.55 498.376 C 1057.93 516.828 1044.93 533.728 1026.48 536.146 C 1007.99 538.57 991.036 525.527 988.644 507.03 C 986.251 488.533 999.324 471.606 1017.82 469.245 z" fill="rgb(11,237,238)" transform="translate(0,0)"></path>
<path d="M 1413.33 1166.5 C 1426.96 1166.4 1498.64 1163.75 1505.15 1168.64 C 1507.69 1170.55 1508.92 1173.57 1509.18 1176.65 C 1509.5 1180.45 1508.41 1185.05 1505.61 1187.79 C 1500.35 1192.91 1478.78 1190.49 1471.08 1190.32 L 1373.02 1190.03 L 1372.91 1166.71 L 1413.33 1166.5 z" fill="url(#Gradient1)" transform="translate(0,0)"></path>
<path d="M 1375.84 859.47 L 1462.27 859.584 C 1474.89 859.565 1487.77 858.913 1500.31 859.469 C 1513.83 860.068 1514.32 872.151 1506.38 880.56 C 1496.86 884.189 1388.34 882.682 1372.96 882.637 C 1372.88 877.76 1372.18 864.045 1373.76 860.1 L 1375.84 859.47 z" fill="rgb(5,219,251)" transform="translate(0,0)"></path>
<path d="M 1548.2 993.903 C 1565.37 992.206 1580.73 1004.59 1582.71 1021.73 C 1584.7 1038.87 1572.57 1054.44 1555.46 1056.71 C 1544.14 1058.21 1532.89 1053.49 1526.03 1044.36 C 1519.17 1035.23 1517.77 1023.1 1522.36 1012.65 C 1526.95 1002.19 1536.83 995.027 1548.2 993.903 z" fill="rgb(255,154,73)" transform="translate(0,0)"></path>
<path d="M 497.408 993.523 C 514.713 993.145 529.1 1006.76 529.673 1024.06 C 530.247 1041.36 516.794 1055.9 499.502 1056.67 C 488.141 1057.18 477.385 1051.54 471.338 1041.9 C 465.292 1032.27 464.89 1020.13 470.285 1010.12 C 475.679 1000.11 486.038 993.771 497.408 993.523 z" fill="rgb(11,237,238)" transform="translate(0,0)"></path>
<path d="M 865.88 535.998 C 871.499 536.334 878.969 536.822 879.591 543.972 C 880.806 559.615 880.801 580.948 880.539 596.236 C 880.369 606.189 881.676 671.373 879.008 674.91 L 875.25 675.123 L 858.279 675.103 C 858.286 646.122 858.457 617.14 858.794 588.161 C 858.884 574.318 858.59 559.96 859.025 546.131 C 859.193 540.771 861.799 539.306 865.88 535.998 z" fill="rgb(11,237,238)" transform="translate(0,0)"></path>
<path d="M 1018.01 1522.69 C 1034.57 1519.61 1050.51 1530.49 1053.66 1547.04 C 1056.82 1563.58 1046 1579.57 1029.47 1582.79 C 1012.84 1586.03 996.736 1575.14 993.563 1558.49 C 990.39 1541.85 1001.35 1525.79 1018.01 1522.69 z" fill="rgb(255,154,73)" transform="translate(0,0)"></path>
<path d="M 1174.85 534.711 C 1184.71 536.32 1187.9 540.633 1188.09 550.724 C 1188.73 583.723 1188.04 616.783 1188.25 649.796 C 1188.3 657.691 1188.6 666.781 1187.96 674.558 C 1185.84 676.537 1186 675.867 1182.25 676.036 L 1167.01 676.057 L 1166.92 588.275 C 1166.91 574.213 1166.56 558.941 1167.5 544.928 C 1167.84 539.827 1171.04 537.464 1174.85 534.711 z" fill="rgb(11,237,238)" transform="translate(0,0)"></path>
<path d="M 553.316 859.148 L 678.533 858.924 C 678.478 865.777 680.584 875.527 676.984 880.536 L 673.25 880.712 C 646.142 880.334 619.013 881.107 591.814 880.818 C 583.502 880.73 552.249 883.749 547.454 875.241 C 543.785 868.732 546.808 862.859 553.316 859.148 z" fill="rgb(5,219,251)" transform="translate(0,0)"></path>
<path d="M 561.175 1166.48 L 678.364 1166.34 L 678.355 1187.3 L 661.5 1187.26 L 590.814 1187.29 C 578.697 1187.36 566.84 1187.79 554.587 1187.32 C 544.807 1186.95 542.019 1176.71 547.823 1169.99 C 551.361 1165.89 556.03 1166.55 561.175 1166.48 z" fill="rgb(11,237,238)" transform="translate(0,0)"></path>
<path d="M 1373.22 1012.9 C 1389.36 1012.89 1475.26 1009.93 1483.5 1014.89 C 1486.28 1016.56 1487.84 1018.72 1488.48 1021.94 C 1489.31 1026.1 1487.32 1029.67 1485.21 1033.06 C 1477.31 1037.6 1452.87 1036.14 1442.53 1036.13 L 1373.62 1035.85 C 1372.96 1028.75 1373.2 1020.17 1373.22 1012.9 z" fill="rgb(0,169,254)" transform="translate(0,0)"></path>
<path d="M 1166.83 1377.87 L 1186.93 1377.85 L 1186.57 1465.38 C 1186.54 1474.12 1187.07 1503.09 1185.23 1509.96 C 1174.87 1515.12 1168.94 1512.92 1168.16 1500.44 C 1167.28 1486.32 1167.58 1471.83 1167.48 1457.65 L 1166.83 1377.87 z" fill="rgb(15,107,255)" transform="translate(0,0)"></path>
<path d="M 860.523 1376.77 L 879.531 1376.85 C 879.228 1396.51 881.547 1500.28 877.662 1510.81 C 868.666 1517.46 861.293 1514.22 860.996 1502.48 C 860.63 1488.05 860.694 1473.7 860.692 1459.26 L 860.523 1376.77 z" fill="rgb(15,107,255)" transform="translate(0,0)"></path>
<path d="M 1019.89 559.073 C 1030.12 558.824 1033.99 560.476 1034.25 571.762 C 1034.87 598.162 1033.69 624.583 1034.42 650.992 C 1034.55 655.674 1035.62 672.186 1033 675.166 L 1028.25 675.295 L 1012.24 675.317 L 1012.57 606.213 C 1012.61 593.74 1012.37 580.042 1013.2 567.595 C 1013.48 563.46 1016.62 561.592 1019.89 559.073 z" fill="rgb(11,237,238)" transform="translate(0,0)"></path>
<path d="M 1015.46 1377.27 L 1034.93 1377.19 L 1035.03 1452.62 C 1035.03 1463.3 1036.57 1490.41 1032.11 1498.69 C 1023.13 1503.05 1016.24 1501.84 1015.5 1490.54 C 1014.67 1477.8 1015.05 1464.71 1015.1 1451.94 L 1015.46 1377.27 z" fill="rgb(15,107,255)" transform="translate(0,0)"></path>
<path d="M 598.651 1013.51 C 625.434 1013.2 652.22 1013.15 679.005 1013.36 L 678.934 1034.48 L 648.25 1034.47 C 640.865 1034.4 573.277 1035.58 570.848 1032.68 C 551.931 1010.15 586.865 1013.33 598.651 1013.51 z" fill="rgb(6,138,208)" transform="translate(0,0)"></path>
<metadata><recraft-signature>{"signed_by": "recraft", "signature_b64": "VO47/YJhXKhN+8uhjsWOqQHAb5d/0KrmVCvhrP32nYM8yL3V68Oi/noOgnSfRUJAXZZNlIUKtjQWnMdYNWJNCA==", "signing_algo": "Ed25519", "generation_timestamp": 1777482708, "identifier": "6dabbd58-6eaa-44ea-89c6-d6656bea72ad"}</recraft-signature></metadata></svg>