<svg xmlns="http://www.w3.org/2000/svg" height="1024" preserveAspectRatio="none" style="display: block;" version="1.1" viewBox="0 0 2048 2048" width="1024">
<defs>
	<linearGradient gradientUnits="userSpaceOnUse" id="Gradient1" x1="1027.87" x2="1021.19" y1="1622.51" y2="377.701">
		<stop class="stop0" offset="0" stop-color="rgb(14,39,69)" stop-opacity="1"></stop>
		<stop class="stop1" offset="1" stop-color="rgb(56,86,134)" stop-opacity="1"></stop>
	</linearGradient>
</defs>
<path d="M 0 0 L 2048 0 L 2048 2048 L 0 2048 L 0 0 z" fill="rgb(6,30,42)" transform="translate(0,0)"></path>
<path d="M 563.999 1628.58 C 555.087 1621.19 543.17 1604.41 541.348 1593.14 C 535.407 1556.38 537.351 1510.67 537.464 1473.56 L 537.803 1337.52 L 537.926 927.853 L 537.595 587.635 L 537.666 494.195 C 537.73 471.929 536.1 442.514 541.079 420.923 C 544.511 406.042 559.889 391.369 573.229 384.822 C 580.878 381.068 589.205 378.962 597.829 378.956 C 638.209 378.716 678.873 378.914 719.239 378.817 L 990.505 378.809 L 1287.31 378.648 C 1339.09 378.535 1390.84 378.11 1442.62 378.369 C 1477.52 378.544 1498.45 395.438 1513.46 426.355 C 1516.78 433.91 1516.03 439.519 1517.91 444.949 C 1528.54 454.433 1560.63 484.649 1564.11 496.859 C 1568.79 513.293 1566.97 557.972 1566.93 576.406 L 1567.06 688.5 L 1567.12 1100.08 L 1567.05 1478.84 L 1567.08 1595.17 C 1567.08 1614.97 1567.4 1635.45 1566.6 1655.19 C 1566.26 1663.61 1559.31 1674.88 1553.46 1680.95 C 1541.83 1693.04 1531.73 1697.77 1514.99 1698.01 C 1487.84 1698.4 1460.77 1698.37 1433.67 1698.43 L 1283.98 1698.63 L 908.565 1698.93 L 738.486 1698 C 724.191 1698 709.896 1698.09 695.603 1698.3 C 686.619 1698.45 669.768 1699.58 661.567 1697.69 C 638.343 1692.36 620.681 1673.73 602.923 1659.19 C 599.187 1656.13 583.399 1645.25 582.411 1641.59 C 579.095 1638.66 568.128 1631.36 563.999 1628.58 z" fill="rgb(131,229,232)" transform="translate(0,0)"></path>
<path d="M 1513.46 426.355 C 1516.78 433.91 1516.03 439.519 1517.91 444.949 C 1528.54 454.433 1560.63 484.649 1564.11 496.859 C 1568.79 513.293 1566.97 557.972 1566.93 576.406 L 1567.06 688.5 L 1567.12 1100.08 L 1567.05 1478.84 L 1567.08 1595.17 C 1567.08 1614.97 1567.4 1635.45 1566.6 1655.19 C 1566.26 1663.61 1559.31 1674.88 1553.46 1680.95 C 1541.83 1693.04 1531.73 1697.77 1514.99 1698.01 C 1487.84 1698.4 1460.77 1698.37 1433.67 1698.43 L 1283.98 1698.63 L 908.565 1698.93 L 738.486 1698 C 724.191 1698 709.896 1698.09 695.603 1698.3 C 686.619 1698.45 669.768 1699.58 661.567 1697.69 C 638.343 1692.36 620.681 1673.73 602.923 1659.19 C 599.187 1656.13 583.399 1645.25 582.411 1641.59 C 579.095 1638.66 568.128 1631.36 563.999 1628.58 C 570.621 1622.55 577.271 1614.08 583.698 1607.52 C 601.151 1589.72 618.065 1570.04 635.422 1552.34 C 630.209 1547.67 626.055 1543.39 622.52 1537.32 C 626.695 1531.71 630.682 1523.59 635.242 1517.3 C 640.24 1510.41 654.235 1497.15 654.815 1489.86 C 654.995 1481.12 659.676 1473.1 667.193 1468.64 C 674.711 1464.18 683.999 1463.92 691.752 1467.96 C 699.15 1461.51 708.003 1452.04 715.228 1444.87 C 729.135 1431.04 743.223 1417.39 757.489 1403.93 L 853.331 1313.66 C 869.806 1298.24 887.576 1282.48 903.619 1266.89 L 904.451 1266.83 C 908.81 1260.17 933.361 1238.17 940.004 1231.34 C 979.728 1190.51 1022.37 1152.04 1061.2 1110.52 C 1067.27 1104.03 1083.77 1088.88 1087.93 1082.23 C 1111.79 1070.34 1129.58 1060.03 1147.31 1039.64 C 1192.3 987.903 1199.31 926.454 1172.76 864.796 L 1170.58 859.264 C 1175.34 852.852 1187.76 840.284 1193.74 833.923 L 1244.9 780.433 L 1282.67 740.695 C 1288.62 734.432 1299.51 722.403 1305.92 717.413 L 1306.08 716.694 C 1316.87 706.606 1328.43 691.7 1338.99 681.092 C 1362.66 657.306 1384.83 631.877 1408.34 608.039 C 1415.82 600.455 1429.98 585.167 1437.94 579.134 C 1437.98 558.556 1438.98 524.087 1436.47 504.773 C 1438.26 501.686 1449.19 491.988 1452.39 488.294 C 1472.65 464.944 1490.19 446.479 1513.46 426.355 z" fill="rgb(9,208,187)" transform="translate(0,0)"></path>
<path d="M 1513.46 426.355 C 1516.78 433.91 1516.03 439.519 1517.91 444.949 C 1528.54 454.433 1560.63 484.649 1564.11 496.859 C 1568.79 513.293 1566.97 557.972 1566.93 576.406 L 1567.06 688.5 L 1567.12 1100.08 L 1567.05 1478.84 L 1567.08 1595.17 C 1567.08 1614.97 1567.4 1635.45 1566.6 1655.19 C 1566.26 1663.61 1559.31 1674.88 1553.46 1680.95 C 1541.83 1693.04 1531.73 1697.77 1514.99 1698.01 C 1487.84 1698.4 1460.77 1698.37 1433.67 1698.43 L 1283.98 1698.63 L 908.565 1698.93 L 738.486 1698 C 724.191 1698 709.896 1698.09 695.603 1698.3 C 686.619 1698.45 669.768 1699.58 661.567 1697.69 C 638.343 1692.36 620.681 1673.73 602.923 1659.19 C 599.187 1656.13 583.399 1645.25 582.411 1641.59 C 579.095 1638.66 568.128 1631.36 563.999 1628.58 C 570.621 1622.55 577.271 1614.08 583.698 1607.52 C 601.151 1589.72 618.065 1570.04 635.422 1552.34 C 642.079 1557.23 653.005 1565.15 661.206 1565.7 C 685.382 1567.31 712.319 1566.43 736.622 1566.3 L 877.831 1566.05 L 1358.7 1566.5 C 1382.79 1566.38 1398.94 1563.03 1416.45 1545.45 C 1440.91 1520.9 1438.97 1494.08 1438.88 1462.06 L 1438.76 1403.71 L 1438.34 1193.9 L 1437.94 579.134 C 1437.98 558.556 1438.98 524.087 1436.47 504.773 C 1438.26 501.686 1449.19 491.988 1452.39 488.294 C 1472.65 464.944 1490.19 446.479 1513.46 426.355 z" fill="rgb(6,30,42)" transform="translate(0,0)"></path>
<path d="M 1517.91 444.949 C 1528.54 454.433 1560.63 484.649 1564.11 496.859 C 1568.79 513.293 1566.97 557.972 1566.93 576.406 L 1567.06 688.5 L 1567.12 1100.08 L 1567.05 1478.84 L 1567.08 1595.17 C 1567.08 1614.97 1567.4 1635.45 1566.6 1655.19 C 1566.26 1663.61 1559.31 1674.88 1553.46 1680.95 C 1541.83 1693.04 1531.73 1697.77 1514.99 1698.01 C 1487.84 1698.4 1460.77 1698.37 1433.67 1698.43 L 1283.98 1698.63 L 908.565 1698.93 L 738.486 1698 C 724.191 1698 709.896 1698.09 695.603 1698.3 C 686.619 1698.45 669.768 1699.58 661.567 1697.69 C 638.343 1692.36 620.681 1673.73 602.923 1659.19 C 599.187 1656.13 583.399 1645.25 582.411 1641.59 C 589.022 1644.2 594.962 1645.69 602.061 1645.78 C 631.655 1646.18 661.716 1645.92 691.307 1645.91 L 867.762 1645.88 L 1407.36 1645.81 C 1440.08 1645.73 1468.63 1648.75 1493.59 1623.57 C 1521.97 1594.95 1519.09 1562.17 1518.7 1525.71 C 1518.41 1503.09 1518.25 1480.47 1518.2 1457.85 L 1518.05 1210.23 L 1518.4 605.073 C 1518.14 551.881 1518.73 498.047 1517.91 444.949 z" fill="rgb(1,9,24)" transform="translate(0,0)"></path>
<path d="M 1305.92 717.413 C 1471.22 938.633 1335.18 1257.05 1058.63 1288.1 C 1001.92 1294.47 957.815 1286.6 904.451 1266.83 C 908.81 1260.17 933.361 1238.17 940.004 1231.34 C 979.728 1190.51 1022.37 1152.04 1061.2 1110.52 C 1067.27 1104.03 1083.77 1088.88 1087.93 1082.23 C 1111.79 1070.34 1129.58 1060.03 1147.31 1039.64 C 1192.3 987.903 1199.31 926.454 1172.76 864.796 L 1170.58 859.264 C 1175.34 852.852 1187.76 840.284 1193.74 833.923 L 1244.9 780.433 L 1282.67 740.695 C 1288.62 734.432 1299.51 722.403 1305.92 717.413 z" fill="rgb(12,74,94)" transform="translate(0,0)"></path>
<path d="M 654.815 1489.86 C 654.995 1481.12 659.676 1473.1 667.193 1468.64 C 674.711 1464.18 683.999 1463.92 691.752 1467.96 C 702.816 1473.71 708.028 1486.68 704.026 1498.49 C 700.024 1510.3 688.004 1517.43 675.72 1515.28 C 663.436 1513.12 654.559 1502.33 654.815 1489.86 z" fill="rgb(6,30,42)" transform="translate(0,0)"></path>
<path d="M 1211.28 1294.43 L 1306.63 1294.05 C 1328.69 1293.98 1379.35 1286.73 1379.24 1319.69 C 1379.05 1376.9 1379.68 1434.32 1378.49 1491.49 C 1377.99 1515.02 1361.08 1519.99 1340.59 1519.42 C 1323.35 1519.23 1305.56 1519.39 1288.27 1519.39 L 1201.02 1519.46 C 1178.42 1519.63 1123.92 1527.38 1123.3 1492.21 C 1122.63 1454.54 1120.64 1412.45 1123.88 1374.99 C 1124.83 1364.07 1182.92 1307.95 1194.6 1299.1 C 1198.14 1296.41 1206.83 1294.85 1211.28 1294.43 z" fill="rgb(5,124,118)" transform="translate(0,0)"></path>
<path d="M 1225.71 1333 C 1235.23 1330.92 1245.14 1334.13 1251.64 1341.4 C 1258.13 1348.66 1260.21 1358.87 1257.08 1368.1 C 1253.94 1377.33 1246.08 1384.16 1236.49 1385.96 C 1221.98 1388.7 1207.95 1379.28 1205 1364.8 C 1202.05 1350.32 1211.28 1336.16 1225.71 1333 z" fill="rgb(241,248,247)" transform="translate(0,0)"></path>
<path d="M 813.459 1215.52 C 787.224 1196.98 759.429 1168.63 740.152 1143.07 C 684.113 1068.26 659.861 974.36 672.667 881.773 C 703.362 664.115 921.825 525.855 1131.56 593.311 C 1200.91 615.616 1262.27 658.095 1306.08 716.694 L 1305.92 717.413 C 1299.51 722.403 1288.62 734.432 1282.67 740.695 L 1244.9 780.433 L 1193.74 833.923 C 1187.76 840.284 1175.34 852.852 1170.58 859.264 L 1172.76 864.796 C 1199.31 926.454 1192.3 987.903 1147.31 1039.64 C 1129.58 1060.03 1111.79 1070.34 1087.93 1082.23 C 1083.77 1088.88 1067.27 1104.03 1061.2 1110.52 C 1022.37 1152.04 979.728 1190.51 940.004 1231.34 C 933.361 1238.17 908.81 1260.17 904.451 1266.83 L 903.619 1266.89 C 894.336 1263.7 884.472 1259.19 875.387 1255.28 C 893.944 1236.27 915.309 1218.91 931.105 1197.57 C 948.315 1173.69 931.159 1145.38 903.202 1143.9 C 886.476 1142.75 875.503 1153.84 864.616 1164.89 C 847.786 1181.97 830.97 1199.05 813.459 1215.52 z" fill="rgb(67,113,131)" transform="translate(0,0)"></path>
<path d="M 965.937 1082.41 C 934.947 1070.45 905.424 1044.78 887.917 1016.72 C 864.872 980.235 857.272 936.085 866.788 893.992 C 894.431 775 1041.99 729.876 1132.35 810.713 C 1149.28 825.864 1158.87 840.001 1170.58 859.264 L 1172.76 864.796 C 1199.31 926.454 1192.3 987.903 1147.31 1039.64 C 1129.58 1060.03 1111.79 1070.34 1087.93 1082.23 C 1048.77 1095.12 1004.74 1098.57 965.937 1082.41 z" fill="rgb(131,229,232)" transform="translate(0,0)"></path>
<path d="M 1172.76 864.796 C 1199.31 926.454 1192.3 987.903 1147.31 1039.64 C 1129.58 1060.03 1111.79 1070.34 1087.93 1082.23 C 1048.77 1095.12 1004.74 1098.57 965.937 1082.41 C 982.064 1065.18 997.892 1046.53 1014.98 1030.3 C 1070.78 977.307 1123.8 924.469 1172.76 864.796 z" fill="rgb(9,208,187)" transform="translate(0,0)"></path>
<path d="M 1016.73 877.41 C 1046.09 874.176 1072.57 895.191 1076.1 924.516 C 1079.62 953.841 1058.87 980.535 1029.58 984.352 C 999.88 988.222 972.725 967.113 969.15 937.373 C 965.575 907.632 986.953 880.689 1016.73 877.41 z" fill="rgb(0,162,148)" transform="translate(0,0)"></path>
<path d="M 563.999 1628.58 C 555.087 1621.19 543.17 1604.41 541.348 1593.14 C 535.407 1556.38 537.351 1510.67 537.464 1473.56 L 537.803 1337.52 L 537.926 927.853 L 537.595 587.635 L 537.666 494.195 C 537.73 471.929 536.1 442.514 541.079 420.923 C 544.511 406.042 559.889 391.369 573.229 384.822 C 580.878 381.068 589.205 378.962 597.829 378.956 C 638.209 378.716 678.873 378.914 719.239 378.817 L 990.505 378.809 L 1287.31 378.648 C 1339.09 378.535 1390.84 378.11 1442.62 378.369 C 1477.52 378.544 1498.45 395.438 1513.46 426.355 C 1490.19 446.479 1472.65 464.944 1452.39 488.294 C 1449.19 491.988 1438.26 501.686 1436.47 504.773 C 1426.07 471.016 1405.36 451.881 1368.86 451.407 C 1328.4 450.882 1287.94 451.014 1247.47 450.983 L 1002.03 451.119 L 811.401 451.098 L 723.371 450.95 C 712.564 450.933 687.865 450.28 677.74 451.372 C 672.849 451.912 668.027 452.958 663.352 454.493 C 631.296 465.05 613.267 493.19 613.161 526.362 C 612.957 590.112 613.035 653.859 613.061 717.611 L 613.039 1081 L 612.764 1336.93 L 612.381 1432.72 C 612.265 1461.36 607.791 1513.29 622.52 1537.32 C 626.055 1543.39 630.209 1547.67 635.422 1552.34 C 618.065 1570.04 601.151 1589.72 583.698 1607.52 C 577.271 1614.08 570.621 1622.55 563.999 1628.58 z" fill="url(#Gradient1)" transform="translate(0,0)"></path>
<path d="M 1359.22 505.695 C 1373.16 502.156 1387.32 510.667 1390.73 524.642 C 1394.14 538.617 1385.5 552.692 1371.5 555.977 C 1357.67 559.22 1343.81 550.715 1340.45 536.919 C 1337.08 523.122 1345.46 509.189 1359.22 505.695 z" fill="rgb(6,30,42)" transform="translate(0,0)"></path>
<path d="M 674.465 507.719 C 687.786 504.599 701.138 512.778 704.411 526.062 C 707.684 539.347 699.659 552.792 686.413 556.218 C 677.708 558.469 668.464 555.868 662.211 549.406 C 655.958 542.945 653.661 533.621 656.197 524.994 C 658.733 516.367 665.71 509.769 674.465 507.719 z" fill="rgb(6,30,42)" transform="translate(0,0)"></path>
<metadata><recraft-signature>{"signed_by": "recraft", "signature_b64": "N9s9bAqyf70F66eB4gpkSqMqfuOeG/2NuQpautJLQgsPhlz05LyYvtn5TuDQeXg8ICbqb4V8jTipmOiVw9U4Cg==", "signing_algo": "Ed25519", "generation_timestamp": 1777482731, "identifier": "6b52213b-4eec-4b95-80f0-8de9a3b40d97"}</recraft-signature></metadata></svg>