<svg xmlns="http://www.w3.org/2000/svg" height="1024" preserveAspectRatio="none" style="display: block;" version="1.1" viewBox="0 0 2048 2048" width="1024">
<defs>
	<linearGradient gradientUnits="userSpaceOnUse" id="Gradient1" x1="920.724" x2="810.01" y1="1580.23" y2="473.194">
		<stop class="stop0" offset="0" stop-color="rgb(175,105,33)" stop-opacity="1"></stop>
		<stop class="stop1" offset="1" stop-color="rgb(235,117,24)" stop-opacity="1"></stop>
	</linearGradient>
	<linearGradient gradientUnits="userSpaceOnUse" id="Gradient2" x1="1483.6" x2="1305.69" y1="1030.37" y2="945.124">
		<stop class="stop0" offset="0" stop-color="rgb(183,93,32)" stop-opacity="1"></stop>
		<stop class="stop1" offset="1" stop-color="rgb(219,117,36)" stop-opacity="1"></stop>
	</linearGradient>
	<linearGradient gradientUnits="userSpaceOnUse" id="Gradient3" x1="1074.68" x2="1311.51" y1="1404.82" y2="476.603">
		<stop class="stop0" offset="0" stop-color="rgb(200,70,23)" stop-opacity="1"></stop>
		<stop class="stop1" offset="1" stop-color="rgb(251,111,28)" stop-opacity="1"></stop>
	</linearGradient>
</defs>
<path d="M 0 0 L 2048 0 L 2048 2048 L 0 2048 L 0 0 z" fill="rgb(37,39,51)" transform="translate(0,0)"></path>
<path d="M 281.626 494.241 C 302.24 492.718 328.02 493.852 348.777 494.388 C 376.751 495.11 371.042 532.424 370.723 552.462 L 369.833 614.374 C 383.042 614.289 397.707 614.601 410.745 614.396 C 456.979 613.671 447.688 636.91 448.242 671.013 C 482.336 643.329 512.991 611.243 545.554 581.86 C 556.536 571.951 571.32 555.91 583.381 548.691 L 585 547.734 C 589.645 544.94 595.509 545.203 601.072 545.172 C 645.944 544.927 690.9 545.037 735.768 545.029 C 819.359 544.52 902.953 544.644 986.543 545.4 L 1304.7 544.776 L 1571 545.181 L 1665.69 545.517 C 1682.33 545.629 1699.42 545.561 1716 546.289 C 1720.42 546.483 1728.1 551.934 1730.7 555.183 C 1741.13 568.218 1777.43 600.009 1782.08 612.853 C 1783.41 616.518 1783.23 658.895 1783.24 664.383 L 1783.11 792.008 L 1784.11 1316.39 C 1784.19 1333.55 1786.5 1374.62 1780.64 1388.72 C 1778.13 1394.77 1759.07 1413.37 1753.39 1419.1 L 1727.97 1445.45 C 1724.03 1449.49 1715.59 1457.39 1710.46 1458.37 C 1691.2 1462.03 1663.73 1460.64 1644.08 1460.5 C 1618.05 1460.2 1592.02 1460.15 1565.99 1460.36 C 1566.3 1486.2 1568.5 1507.54 1566.89 1533.91 C 1563.96 1538.9 1553.83 1550.28 1548.63 1550.67 C 1526.73 1552.3 1493.44 1551.21 1472.26 1551.14 L 1275.79 1550.74 L 571.125 1550.39 L 376.459 1550.09 L 313.717 1550.06 C 303.089 1550.06 292.516 1549.99 281.898 1549.85 C 272.045 1549.72 260.703 1539.6 259.889 1529.95 C 258.095 1508.7 259.13 1486.09 259.344 1464.65 C 259.87 1424.7 260.035 1384.74 259.838 1344.79 L 260.37 727.973 L 260.855 590.498 C 260.994 566.151 261.055 541.777 261.612 517.443 C 261.925 503.761 268.258 496.995 281.626 494.241 z" fill="rgb(27,28,39)" transform="translate(0,0)"></path>
<path d="M 973.808 575.348 C 1012.6 576.517 1053.05 576.143 1091.95 576.164 L 1284.32 576.037 C 1424.59 575.991 1566.34 577.388 1706.49 575.754 C 1720.61 586.77 1738.7 607.742 1753.9 621.038 L 1753.95 1116.72 L 1754.17 1374.18 C 1735.03 1393.75 1718.61 1408.8 1700.64 1429.72 C 1659.22 1428.46 1615.65 1429.41 1574.06 1429.82 L 1391.07 1431.1 C 1252.37 1431.45 1109.67 1428.82 971.357 1431.54 C 964.871 1427.13 902.144 1367.1 898.619 1361.96 C 893.413 1358.05 877.902 1342.31 872.755 1337.3 C 852.264 1317.4 831.919 1297.35 811.721 1277.15 C 802.548 1268.05 785.482 1250.29 775.971 1243 C 749.617 1243.36 723.262 1243.56 696.907 1243.62 C 686.14 1243.63 675.231 1243.53 664.486 1243.38 C 647.118 1243.14 640.296 1238.25 631.044 1223.73 C 629.623 1207.41 630.929 1172.23 630.903 1153.9 C 630.576 1102.54 630.543 1051.18 630.804 999.82 L 630.803 859.569 C 630.684 833.084 629.857 805.538 630.94 779.573 C 632.013 753.858 664.629 754.277 682.826 755.276 C 688.341 755.578 695.474 755.572 700.907 755.367 C 727.357 754.37 755.348 758.241 780.676 749.008 C 801.09 741.698 812.097 731.463 827.071 716.564 C 860.706 683.096 895.015 650.559 929.414 617.908 C 944.097 604.016 958.537 588.426 973.808 575.348 z" fill="url(#Gradient3)" transform="translate(0,0)"></path>
<path d="M 1513.39 1360.94 C 1536.41 1334.14 1566.86 1306.48 1592.18 1280.7 L 1753.95 1116.72 L 1754.17 1374.18 C 1735.03 1393.75 1718.61 1408.8 1700.64 1429.72 C 1659.22 1428.46 1615.65 1429.41 1574.06 1429.82 L 1391.07 1431.1 C 1252.37 1431.45 1109.67 1428.82 971.357 1431.54 C 964.871 1427.13 902.144 1367.1 898.619 1361.96 L 1513.39 1360.94 z" fill="rgb(152,54,19)" transform="translate(0,0)"></path>
<path d="M 1666.46 1297.19 C 1689.51 1294.42 1710.5 1310.72 1713.53 1333.74 C 1716.56 1356.76 1700.5 1377.93 1677.51 1381.22 C 1662.42 1383.38 1647.32 1377.26 1637.99 1365.19 C 1628.66 1353.12 1626.54 1336.97 1632.43 1322.9 C 1638.32 1308.83 1651.31 1299.02 1666.46 1297.19 z" fill="rgb(27,28,39)" transform="translate(0,0)"></path>
<path d="M 1283.71 676.438 C 1296.93 675.403 1313.54 676.403 1326.82 677.596 C 1496.55 692.856 1624.1 854.946 1607.62 1024.15 C 1599.35 1111.61 1556.56 1192.17 1488.73 1248 C 1425 1300.17 1343 1324.58 1261.12 1315.76 C 1177.34 1306.65 1100.6 1264.67 1047.73 1199.04 C 1019.11 1166.55 990.932 1103.98 983.342 1061.14 C 979.211 1037.83 978.263 1019.62 977.956 996.287 C 939.504 996.142 901.05 996.308 862.601 996.787 C 844.065 976.312 820.34 958.076 800.936 938.265 C 755.773 937.976 707.838 938.65 662.651 939.301 L 662.389 909.167 L 810.707 908.206 C 830.654 925.953 853.62 949.3 874.035 965.386 C 909.296 965.112 944.559 965.084 979.821 965.301 C 982.612 951.437 984.371 938.78 987.835 924.727 C 1000.68 871.778 1026.26 822.771 1062.37 781.972 C 1120.32 716.452 1196.93 681.874 1283.71 676.438 z" fill="rgb(27,28,39)" transform="translate(0,0)"></path>
<path d="M 1011.44 1046.16 C 984.526 889.796 1089.62 741.265 1246.03 714.605 C 1402.44 687.945 1550.8 793.275 1577.21 949.73 C 1602.2 1097.76 1508.87 1240.03 1363.13 1276.07 C 1217.4 1312.1 1068.52 1229.73 1021.63 1087.11 C 1017.24 1073.73 1013.83 1060.05 1011.44 1046.16 z" fill="rgb(27,28,39)" transform="translate(0,0)"></path>
<path d="M 1011.44 1046.16 C 984.526 889.796 1089.62 741.265 1246.03 714.605 C 1402.44 687.945 1550.8 793.275 1577.21 949.73 C 1575.93 954.802 1547.02 989.017 1542.95 991.103 C 1540.83 896.89 1485.42 812.048 1400 772.235 C 1314.59 732.421 1213.98 744.538 1140.46 803.493 C 1066.94 862.448 1033.26 958.021 1053.56 1050.04 C 1043.36 1059.55 1022.88 1049.82 1011.44 1046.16 z" fill="rgb(77,76,86)" transform="translate(0,0)"></path>
<path d="M 1577.21 949.73 C 1602.2 1097.76 1508.87 1240.03 1363.13 1276.07 C 1217.4 1312.1 1068.52 1229.73 1021.63 1087.11 C 1017.24 1073.73 1013.83 1060.05 1011.44 1046.16 C 1022.88 1049.82 1043.36 1059.55 1053.56 1050.04 C 1056.55 1063.56 1060.65 1076.8 1065.85 1089.63 C 1110.72 1200.45 1228.37 1263.38 1345.46 1239.2 C 1462.55 1215.02 1545.65 1110.64 1542.95 991.103 C 1547.02 989.017 1575.93 954.802 1577.21 949.73 z" fill="rgb(37,39,51)" transform="translate(0,0)"></path>
<path d="M 1011.44 1046.16 C 1022.88 1049.82 1043.36 1059.55 1053.56 1050.04 C 1056.55 1063.56 1060.65 1076.8 1065.85 1089.63 C 1057.94 1092.39 1030.38 1089.24 1021.63 1087.11 C 1017.24 1073.73 1013.83 1060.05 1011.44 1046.16 z" fill="rgb(64,61,63)" transform="translate(0,0)"></path>
<path d="M 1196.21 799.205 C 1231.52 782.214 1264.52 773.401 1303.69 773.517 C 1305.04 816.797 1309.2 855.598 1309.01 899.438 L 1325.21 904.08 L 1327.29 903.067 C 1330.22 905.715 1339.13 908.569 1344.16 911.952 C 1353.22 918.056 1363.99 929.148 1372.6 934.725 C 1377.84 938.959 1382.38 946.183 1386.09 951.877 C 1411.16 933.057 1433.06 913.065 1453.71 889.341 C 1461.22 880.707 1467.21 872.015 1474.21 863.311 C 1494.65 888.037 1511.67 939.167 1516.17 970.273 C 1479.27 984.122 1438.84 992.588 1399.07 1007.58 C 1398.57 1012.28 1398.33 1014.62 1397.21 1019.16 L 1396.79 1020.28 C 1388.72 1042.61 1391.82 1046.37 1377 1067.82 C 1370.28 1077.45 1367.21 1081.63 1357.28 1088.34 L 1355.41 1089.17 C 1349.23 1091.98 1342.24 1097.22 1336.26 1099.6 C 1328.34 1102.74 1314.68 1104.81 1307.15 1107.85 L 1306.03 1108.34 C 1300.19 1109.18 1297.77 1109.06 1292.03 1108.88 C 1293.59 1155.88 1295.69 1172.45 1308.09 1218.03 C 1269.09 1218.26 1238.2 1216.31 1201.54 1200.02 C 1202.2 1197.29 1204.64 1186.31 1205.4 1184.19 C 1212.25 1151.68 1220.74 1121.69 1235.19 1091.6 C 1227.98 1087.27 1225.63 1084.92 1220.56 1078.62 C 1192.6 1114.78 1181.97 1139.97 1168.53 1183.04 C 1139.91 1165.64 1108.18 1127.8 1092.95 1097.44 C 1123.75 1069.7 1154.19 1048.29 1193.13 1033.44 C 1189.22 1022.81 1188.68 1017.7 1187.83 1006.38 C 1141.35 1014.97 1120.15 1027.27 1080.97 1050.62 C 1071.91 1014.37 1073.61 979.433 1081.63 943.326 C 1118.17 936.671 1165.22 938.748 1199.16 954.85 C 1203.28 947.366 1206.1 943.86 1211.55 937.367 C 1218.78 929.286 1226.16 923.356 1233.96 915.94 C 1239.73 911.162 1246.48 908.289 1253.23 905.16 C 1245.11 884.074 1235.79 859.516 1224.5 840.062 C 1216.87 826.928 1205.24 811.917 1196.21 799.205 z" fill="rgb(244,133,22)" transform="translate(0,0)"></path>
<path d="M 1474.21 863.311 C 1494.65 888.037 1511.67 939.167 1516.17 970.273 C 1479.27 984.122 1438.84 992.588 1399.07 1007.58 C 1398.57 1012.28 1398.33 1014.62 1397.21 1019.16 L 1396.79 1020.28 C 1388.72 1042.61 1391.82 1046.37 1377 1067.82 C 1370.28 1077.45 1367.21 1081.63 1357.28 1088.34 L 1355.41 1089.17 C 1349.23 1091.98 1342.24 1097.22 1336.26 1099.6 C 1328.34 1102.74 1314.68 1104.81 1307.15 1107.85 L 1306.03 1108.34 C 1305.88 1103.4 1305.52 1093.97 1304.19 1089.49 C 1292.1 1090.8 1280.56 1090.64 1268.75 1087.38 C 1223.89 1075 1199.01 1022.56 1211.63 978.926 C 1218.02 956.392 1233.21 937.38 1253.78 926.176 C 1275.68 914.194 1296.71 913.887 1320.15 920.782 C 1322.83 914.238 1318.96 910.161 1325.21 904.08 L 1327.29 903.067 C 1330.22 905.715 1339.13 908.569 1344.16 911.952 C 1353.22 918.056 1363.99 929.148 1372.6 934.725 C 1377.84 938.959 1382.38 946.183 1386.09 951.877 C 1411.16 933.057 1433.06 913.065 1453.71 889.341 C 1461.22 880.707 1467.21 872.015 1474.21 863.311 z" fill="rgb(27,28,39)" transform="translate(0,0)"></path>
<path d="M 1474.21 863.311 C 1494.65 888.037 1511.67 939.167 1516.17 970.273 C 1479.27 984.122 1438.84 992.588 1399.07 1007.58 C 1398.57 1012.28 1398.33 1014.62 1397.21 1019.16 L 1396.79 1020.28 C 1388.72 1042.61 1391.82 1046.37 1377 1067.82 C 1370.28 1077.45 1367.21 1081.63 1357.28 1088.34 L 1355.41 1089.17 C 1349.23 1091.98 1342.24 1097.22 1336.26 1099.6 C 1328.34 1102.74 1314.68 1104.81 1307.15 1107.85 L 1306.03 1108.34 C 1305.88 1103.4 1305.52 1093.97 1304.19 1089.49 C 1334.5 1083.13 1359.41 1068.36 1372.18 1038.79 C 1381.45 1017.07 1381.82 992.583 1373.22 970.591 C 1362.55 943.961 1345.78 931.818 1320.15 920.782 C 1322.83 914.238 1318.96 910.161 1325.21 904.08 L 1327.29 903.067 C 1330.22 905.715 1339.13 908.569 1344.16 911.952 C 1353.22 918.056 1363.99 929.148 1372.6 934.725 C 1377.84 938.959 1382.38 946.183 1386.09 951.877 C 1411.16 933.057 1433.06 913.065 1453.71 889.341 C 1461.22 880.707 1467.21 872.015 1474.21 863.311 z" fill="url(#Gradient2)" transform="translate(0,0)"></path>
<path d="M 1205.4 1184.19 L 1206.35 1185.13 C 1208.33 1185.46 1209.98 1185.31 1211.27 1183.32 C 1220.49 1169.08 1277.45 1111.16 1292.03 1108.88 C 1293.59 1155.88 1295.69 1172.45 1308.09 1218.03 C 1269.09 1218.26 1238.2 1216.31 1201.54 1200.02 C 1202.2 1197.29 1204.64 1186.31 1205.4 1184.19 z" fill="rgb(194,101,29)" transform="translate(0,0)"></path>
<path d="M 1348.91 782.717 C 1383.65 793.128 1417.56 810.008 1445.32 833.578 C 1433.36 858.885 1392.76 915.045 1372.6 934.725 C 1363.99 929.148 1353.22 918.056 1344.16 911.952 C 1339.13 908.569 1330.22 905.715 1327.29 903.067 C 1342.06 865.035 1348.45 823.405 1348.91 782.717 z" fill="rgb(244,133,22)" transform="translate(0,0)"></path>
<path d="M 1397.21 1019.16 C 1415.61 1025.98 1493.32 1020.86 1515.21 1016.38 C 1509.39 1055.3 1500.16 1090.38 1476.44 1122.96 C 1442.12 1107.86 1406.05 1092.14 1377 1067.82 C 1391.82 1046.37 1388.72 1042.61 1396.79 1020.28 L 1397.21 1019.16 z" fill="rgb(152,54,19)" transform="translate(0,0)"></path>
<path d="M 1307.15 1107.85 C 1314.68 1104.81 1328.34 1102.74 1336.26 1099.6 C 1342.24 1097.22 1349.23 1091.98 1355.41 1089.17 L 1357.28 1088.34 C 1394.15 1116.4 1412.44 1131.1 1452.67 1153.36 C 1429.06 1179.8 1389.68 1199.64 1356.77 1211.95 C 1340.02 1182.81 1323.87 1153.55 1312.17 1122.01 C 1310.44 1117.36 1308.93 1112.41 1307.15 1107.85 z" fill="rgb(152,54,19)" transform="translate(0,0)"></path>
<path d="M 1158.7 825.015 C 1163.65 829.874 1173.83 837.535 1179.56 842.443 C 1205.82 864.905 1223.96 882.383 1233.96 915.94 C 1226.16 923.356 1218.78 929.286 1211.55 937.367 C 1181.42 914.9 1133.71 906.451 1096.99 903.76 C 1106.7 877.354 1137.07 842.524 1158.7 825.015 z" fill="rgb(242,241,241)" transform="translate(0,0)"></path>
<path d="M 1665.16 621.287 C 1688.34 618.186 1709.64 634.443 1712.78 657.616 C 1715.91 680.788 1699.68 702.12 1676.51 705.285 C 1653.3 708.455 1631.92 692.189 1628.78 668.971 C 1625.64 645.754 1641.94 624.394 1665.16 621.287 z" fill="rgb(27,28,39)" transform="translate(0,0)"></path>
<path d="M 663.073 1020.03 C 708.163 1020.31 753.254 1020.26 798.343 1019.89 C 798.343 1029.21 798.476 1038.52 798.743 1047.83 C 754.877 1046.68 707.369 1047.89 663.077 1048.04 L 663.073 1020.03 z" fill="rgb(27,28,39)" transform="translate(0,0)"></path>
<path d="M 663.668 832.482 C 685.412 832.714 707.159 832.764 728.904 832.633 L 728.884 863.139 L 662.998 862.802 C 662.991 855.429 662.425 838.638 663.668 832.482 z" fill="rgb(27,28,39)" transform="translate(0,0)"></path>
<path d="M 673.948 1133.59 C 688.619 1133.95 704.488 1133.64 719.249 1133.61 L 719.112 1166.09 L 674.03 1165.86 L 673.948 1133.59 z" fill="rgb(27,28,39)" transform="translate(0,0)"></path>
<path d="M 289.936 523.21 L 341.652 522.953 C 339.75 620.152 341.325 721.453 341.169 819.064 L 341.004 1466.25 L 1536.05 1466.09 L 1535.98 1519.06 L 1535.34 1520.67 C 1531.46 1521.45 1512.56 1521.07 1507.76 1521.06 L 1445.98 1520.94 L 1217.9 1520.92 L 289.947 1521.41 L 290.04 1027.62 C 289.058 859.487 289.023 691.346 289.936 523.21 z" fill="url(#Gradient1)" transform="translate(0,0)"></path>
<path d="M 600.936 572.976 C 637.264 574.024 671.732 573.045 707.945 572.974 L 932.632 573.182 C 890.438 612.073 851.611 653.952 808.526 692.065 C 770.651 725.57 765.319 724.229 716.232 724.08 C 647.009 723.987 646.658 713.244 593.986 760.753 C 594.345 769.088 594.083 778.269 594.016 786.671 C 545.743 787.669 492.377 786.913 443.969 786.902 C 443.822 763.199 443.818 739.495 443.956 715.792 C 456.677 702.431 483.106 681.465 497.896 667.774 L 563.792 606.382 C 575.189 595.844 589.042 582.543 600.936 572.976 z" fill="rgb(77,76,86)" transform="translate(0,0)"></path>
<path d="M 694.362 594.414 C 715.516 592.495 734.232 608.059 736.204 629.208 C 738.176 650.356 722.659 669.112 701.515 671.136 C 680.297 673.168 661.461 657.584 659.482 636.361 C 657.503 615.137 673.134 596.34 694.362 594.414 z" fill="rgb(27,28,39)" transform="translate(0,0)"></path>
<path d="M 694.904 612.304 C 706.361 610.672 716.956 618.678 718.516 630.144 C 720.077 641.61 712.006 652.156 700.53 653.645 C 689.155 655.121 678.721 647.136 677.174 635.77 C 675.628 624.404 683.548 613.921 694.904 612.304 z" fill="rgb(242,241,241)" transform="translate(0,0)"></path>
<path d="M 806.387 595.225 C 826.985 591.158 846.996 604.503 851.158 625.082 C 855.32 645.661 842.067 665.733 821.508 669.99 C 800.814 674.275 780.581 660.916 776.392 640.203 C 772.203 619.489 785.655 599.318 806.387 595.225 z" fill="rgb(27,28,39)" transform="translate(0,0)"></path>
<path d="M 811.999 611.828 C 823.17 610.789 833.11 618.903 834.328 630.057 C 835.545 641.21 827.591 651.278 816.458 652.673 C 809.097 653.596 801.81 650.479 797.393 644.518 C 792.977 638.557 792.117 630.679 795.143 623.905 C 798.169 617.132 804.612 612.516 811.999 611.828 z" fill="rgb(242,241,241)" transform="translate(0,0)"></path>
<path d="M 375.736 644.604 C 389.817 644.357 403.901 644.292 417.984 644.409 C 417.533 779.724 419.491 916.796 417.846 1051.92 C 419.555 1128.33 417.623 1208.98 417.852 1285.69 C 417.99 1332.27 418.558 1385.96 417.194 1431.96 L 375.69 1432.09 L 375.144 1284.96 C 375.151 1271.11 374.326 1227.77 375.896 1216.87 C 374.6 1200.41 375.561 1169.58 375.55 1151.79 L 375.836 1015.35 L 375.736 644.604 z" fill="rgb(244,133,22)" transform="translate(0,0)"></path>
<path d="M 417.846 1051.92 C 419.555 1128.33 417.623 1208.98 417.852 1285.69 C 417.99 1332.27 418.558 1385.96 417.194 1431.96 L 375.69 1432.09 L 375.144 1284.96 C 375.151 1271.11 374.326 1227.77 375.896 1216.87 C 378.461 1232.28 376.036 1264.46 377.706 1280.85 L 379.648 1281.21 C 381.659 1280.47 382.579 1280.18 384.293 1278.82 C 392.79 1272.08 405.018 1267.36 415.127 1262.78 C 418.592 1257.68 415.74 1081.52 417.846 1051.92 z" fill="rgb(194,101,29)" transform="translate(0,0)"></path>
<path d="M 696.923 1320.98 C 720.824 1318.41 742.3 1335.66 744.931 1359.56 C 747.561 1383.45 730.354 1404.97 706.465 1407.65 C 682.498 1410.35 660.898 1393.07 658.259 1369.1 C 655.62 1345.13 672.945 1323.57 696.923 1320.98 z" fill="rgb(194,101,29)" transform="translate(0,0)"></path>
<path d="M 696.13 1340.6 C 704.503 1338.58 713.314 1341.23 719.179 1347.54 C 725.044 1353.85 727.051 1362.83 724.428 1371.03 C 721.805 1379.24 714.961 1385.39 706.524 1387.12 C 693.783 1389.74 681.293 1381.67 678.456 1368.97 C 675.62 1356.27 683.484 1343.65 696.13 1340.6 z" fill="rgb(27,28,39)" transform="translate(0,0)"></path>
<path d="M 444.382 870.232 C 493.474 869.19 545.531 870.434 594.864 870.726 C 594.905 881.567 594.822 892.408 594.614 903.248 C 546.874 904.395 492.945 903.497 444.892 903.358 L 444.382 870.232 z" fill="rgb(37,39,51)" transform="translate(0,0)"></path>
<path d="M 487.259 985.502 L 595.045 985.192 C 595.041 996.871 594.898 1006.39 594.122 1018.08 C 579.875 1018.47 564.811 1018.24 550.5 1018.25 C 514.976 1018.38 479.452 1018.31 443.929 1018.05 L 443.825 985.973 C 458.256 985.672 472.815 985.633 487.259 985.502 z" fill="rgb(37,39,51)" transform="translate(0,0)"></path>
<path d="M 444.345 1100.97 L 593.881 1100.74 C 594.172 1109.55 595.369 1123.8 594.678 1131.86 L 495.391 1132.11 C 478.642 1132.18 461.573 1132.85 444.915 1132.39 L 444.345 1100.97 z" fill="rgb(37,39,51)" transform="translate(0,0)"></path>
<metadata><recraft-signature>{"signed_by": "recraft", "signature_b64": "TAwbqANwx7cdrNikNdbOm31hYA4zVukvj99uiE8xz8iM3BFvyqYTDlbp08x/r2vvBlU95Dxtn+Tf4hi5F5ScDg==", "signing_algo": "Ed25519", "generation_timestamp": 1777482724, "identifier": "4595672b-727a-4c6f-ba68-b398d9b5a511"}</recraft-signature></metadata></svg>