<svg xmlns="http://www.w3.org/2000/svg" height="1024" preserveAspectRatio="none" style="display: block;" version="1.1" viewBox="0 0 2048 2048" width="1024">
<defs>
	<linearGradient gradientUnits="userSpaceOnUse" id="Gradient1" x1="453.607" x2="454.383" y1="1022.66" y2="1074.67">
		<stop class="stop0" offset="0" stop-color="rgb(6,69,68)" stop-opacity="1"></stop>
		<stop class="stop1" offset="1" stop-color="rgb(8,115,142)" stop-opacity="1"></stop>
	</linearGradient>
	<linearGradient gradientUnits="userSpaceOnUse" id="Gradient2" x1="1600.66" x2="1581.42" y1="1020.18" y2="1150.29">
		<stop class="stop0" offset="0" stop-color="rgb(48,12,65)" stop-opacity="1"></stop>
		<stop class="stop1" offset="1" stop-color="rgb(108,34,100)" stop-opacity="1"></stop>
	</linearGradient>
	<linearGradient gradientUnits="userSpaceOnUse" id="Gradient3" x1="1516.2" x2="517.641" y1="1696.11" y2="333.948">
		<stop class="stop0" offset="0" stop-color="rgb(22,0,44)" stop-opacity="1"></stop>
		<stop class="stop1" offset="1" stop-color="rgb(8,63,131)" stop-opacity="1"></stop>
	</linearGradient>
	<linearGradient gradientUnits="userSpaceOnUse" id="Gradient4" x1="1605.79" x2="426.022" y1="1798.91" y2="238.546">
		<stop class="stop0" offset="0" stop-color="rgb(8,8,77)" stop-opacity="1"></stop>
		<stop class="stop1" offset="1" stop-color="rgb(15,145,209)" stop-opacity="1"></stop>
	</linearGradient>
</defs>
<path d="M 0 0 L 2048 0 L 2048 2048 L 0 2048 L 0 0 z" fill="rgb(3,17,49)" transform="translate(0,0)"></path>
<path d="M 357.761 1748.93 C 293.402 1707.91 238.758 1622.76 225.247 1548.28 C 217.31 1504.53 219.909 1450.65 219.928 1405.59 L 219.362 1217.01 L 219.802 780.795 L 219.838 633.961 C 219.794 607.221 218.81 575.149 219.897 548.956 C 223.641 458.724 266.234 374.221 331.508 313.155 C 376.784 270.841 433.174 242.296 494.08 230.857 C 524.514 225.081 546.817 225.776 577.319 225.692 L 655.472 225.77 L 880.229 225.821 L 1293.81 226 L 1425.57 225.795 C 1449.95 225.771 1475.14 225.126 1499.18 226.092 C 1674.51 233.137 1818.37 386.637 1812.11 562.459 C 1809.81 627.209 1814.15 693.916 1812.01 758.739 C 1813.9 811.83 1812.87 871.596 1812.83 925.085 L 1812.57 1209.03 L 1812.49 1384.94 C 1812.67 1435.24 1816.01 1492.11 1808.42 1541.42 C 1785.4 1690.9 1640.78 1805.51 1492.07 1809.05 C 1421.15 1810.74 1350.33 1809.01 1279.9 1809.13 L 845.277 1809.48 C 776.308 1809.06 707.338 1809.14 638.371 1809.74 C 597.335 1809.83 555.136 1810.73 514.204 1807.59 C 504.292 1806.83 494.401 1804.73 484.692 1802.53 C 439.698 1792.32 395.712 1776.96 358.183 1749.45 C 358.042 1749.28 357.902 1749.1 357.761 1748.93 z" fill="url(#Gradient4)" transform="translate(0,0)"></path>
<path d="M 504.476 1679.69 C 472.388 1664.13 447.807 1647.72 421.659 1623.22 C 374.545 1579.07 335.275 1502.21 334.918 1436.97 C 334.364 1335.55 334.374 1233.09 334.686 1131.3 L 334.205 863.195 L 333.999 685.529 C 333.984 662.45 334.308 639.211 334.017 616.159 C 333.109 544.019 360.203 470.219 410.777 418.293 C 453.54 374.374 509.547 345.722 570.183 336.744 C 592.611 333.65 612.944 333.899 635.493 333.676 L 1221.33 333.528 L 1357.04 333.362 C 1397.9 333.208 1444.83 330.438 1484.36 339.483 C 1595.04 364.803 1687.89 466.453 1704.06 578.666 C 1707.69 603.844 1706.68 633.254 1706.82 658.837 C 1705.57 677.902 1706.2 703.505 1706.17 722.904 L 1706.02 835.52 L 1706.25 1231.17 L 1705.88 1366.53 C 1705.76 1389.88 1707.05 1470.2 1698.08 1487.64 C 1692.85 1513.76 1683.57 1531.4 1671.52 1554.24 C 1626.24 1640.09 1532.98 1702.41 1435.68 1708.18 C 1402.17 1710.17 1358.71 1709.52 1324.68 1707.87 C 1315.74 1708.59 1297.92 1708.12 1288.04 1708.15 L 1217.93 1708.45 L 974.138 1708.11 L 734.874 1708.25 L 658.463 1708.29 C 597.477 1708.24 561.872 1704.71 504.476 1679.69 z" fill="url(#Gradient3)" transform="translate(0,0)"></path>
<path d="M 1324.68 1707.87 C 1338.25 1705.16 1385.59 1707.21 1401.22 1707.6 C 1440.77 1708.91 1478.9 1703.06 1515.78 1688.41 C 1520.14 1686.68 1543.39 1677.65 1545.81 1675.37 L 1545.3 1674.18 L 1541.88 1675.54 L 1541.19 1674.41 C 1544.29 1667.72 1601.65 1624.28 1609.71 1615.04 C 1626.09 1596.25 1637.19 1567.64 1659.02 1553.76 C 1662.08 1554.26 1664.1 1554.85 1667.04 1555.69 C 1678.2 1551.61 1692.34 1495.97 1698.08 1487.64 C 1692.85 1513.76 1683.57 1531.4 1671.52 1554.24 C 1626.24 1640.09 1532.98 1702.41 1435.68 1708.18 C 1402.17 1710.17 1358.71 1709.52 1324.68 1707.87 z" fill="rgb(3,17,49)" transform="translate(0,0)"></path>
<path d="M 846.041 1040.94 L 920.492 753.509 C 926.938 728.757 933.242 703.969 939.406 679.145 C 943.035 664.617 946.309 650.109 950.943 635.673 C 951.907 628.878 966.565 624.345 971.416 627.92 C 980.247 634.428 985.05 664.696 987.42 674.793 C 991.769 693.345 996.249 711.866 1000.86 730.354 C 1015.49 789.569 1031.46 849.208 1045.66 908.271 C 1041.63 916.813 1065.52 976.749 1063 991.676 L 1061.28 988.718 C 1057.83 987.915 1044.02 991.832 1040.49 993.537 C 1039.85 995.976 1039.91 995.861 1040.12 998.394 L 1039.05 999.17 C 1036.45 994.499 1031.38 991.134 1026.22 989.881 C 1024.39 997.933 1022.49 1008.11 1019.17 1015.47 C 1011.61 984.341 1004.61 952.24 996.906 921.498 L 995.986 921.103 L 995.641 921.273 C 991.719 908.906 989.559 895.009 986.068 882.642 C 977.121 850.943 971.322 819.615 964.146 787.713 C 950.087 835.317 937.571 887.566 925.454 935.717 L 888.794 1075.51 C 882.448 1099.05 876.038 1131.97 868.619 1153.99 C 868.836 1154.64 869.054 1155.3 869.271 1155.96 C 866.783 1160.76 853.489 1170.95 847.313 1170.47 C 840.164 1169.9 835.037 1162.29 830.324 1157.85 C 825.862 1153.64 825.516 1150.69 824.065 1145.02 L 825.288 1143.32 C 820.448 1125.2 814.752 1106.31 808.744 1088.54 C 780.222 1004.16 757.368 916.195 726.142 832.811 C 720.74 849.895 662.678 1007.46 657.83 1012.43 C 656.053 1012.47 655.686 1012.69 654.196 1014.17 C 646.898 1021.41 618.893 1021.74 610.157 1019.52 C 610.172 1018.3 610.119 1018.88 610.38 1017.45 L 610.591 1016.33 C 604.902 1010.26 596.038 999.71 592.345 992.371 C 587.411 982.566 587.542 982.055 581.029 973.183 L 579.239 972.462 C 587.89 971.664 617.453 972.745 623.02 971.243 L 622.315 970.647 C 623.67 961.625 636.104 932.208 640.033 921.441 C 657.125 873.299 674.809 825.369 693.082 777.662 C 699.303 761.08 704.605 743.004 711.618 726.948 C 713.623 722.357 719.09 718.9 723.914 717.579 C 728.915 716.206 734.266 717.08 738.569 719.975 C 743.486 723.231 746.231 727.163 748.103 732.697 C 753.336 748.161 757.967 763.834 763.001 779.364 L 795.964 880.205 L 829.924 985.242 C 834.873 1000.99 843.106 1025.28 846.041 1040.94 z" fill="rgb(28,191,245)" transform="translate(0,0)"></path>
<path d="M 825.288 1143.32 C 828.627 1152.6 831.154 1159.56 840.609 1164.29 C 850.855 1169.41 862.553 1161.8 868.619 1153.99 C 868.836 1154.64 869.054 1155.3 869.271 1155.96 C 866.783 1160.76 853.489 1170.95 847.313 1170.47 C 840.164 1169.9 835.037 1162.29 830.324 1157.85 C 825.862 1153.64 825.516 1150.69 824.065 1145.02 L 825.288 1143.32 z" fill="rgb(3,17,49)" transform="translate(0,0)"></path>
<path d="M 1092.89 1102.27 C 1099.75 1077.33 1108.08 1052.28 1115.29 1027.25 C 1133.2 963.714 1151.74 900.36 1170.91 837.197 L 1193.88 762.575 C 1197.75 750.215 1201.52 736.56 1206.36 724.726 C 1212.22 710.421 1235.1 712.444 1240.84 726.894 C 1248.44 746.031 1255.22 764.933 1262.23 784.09 L 1298.51 882.671 C 1306.94 905.848 1325.73 949.281 1330.64 971.273 L 1500.53 970.989 L 1542.51 971.029 L 1567.81 971.047 L 1615.56 971.033 C 1635.96 971.424 1653.52 982.967 1647.57 1005.43 C 1642.43 1017.12 1635.56 1019.49 1623.54 1020.34 C 1601.12 1020.34 1577.12 1019.91 1554.82 1020.68 L 1542.7 1020.71 L 1501.14 1020.65 C 1438.36 1019.21 1370.19 1022.41 1307.05 1019.71 C 1302.06 1019.5 1295.04 1013.71 1291.08 1010.37 L 1289.57 1010.56 C 1284.04 1005.69 1277.55 976.688 1271.48 966.219 L 1269.68 965.298 C 1270.37 954.23 1252.41 935.309 1252.34 916.41 C 1252.29 904.52 1225.78 853.28 1227.2 842.053 L 1226.31 839.714 C 1224.61 840.727 1223.37 845.673 1223.12 847.485 C 1221.08 861.787 1206.48 899.744 1205.46 911.797 C 1206.69 916.907 1203.01 926.431 1201.37 931.808 C 1193.6 957.258 1186.13 982.794 1178.88 1008.4 C 1177.42 1019.4 1178 1027.66 1175.52 1038.73 C 1174.12 1044.97 1164.85 1057.91 1164.35 1061.32 C 1161.38 1081.36 1159.88 1093.83 1148.17 1111.32 C 1146.39 1113.97 1145.28 1132.43 1143.65 1136.73 C 1139.84 1145.69 1134.63 1152.93 1131.08 1162.46 C 1126.3 1175.26 1126.6 1179.18 1126.51 1191.75 C 1126.48 1195.72 1116.32 1211.8 1115.01 1216.63 C 1112.56 1221.92 1111.03 1229.47 1108.96 1233.33 C 1111.51 1248.88 1108.41 1276.04 1087.21 1269.87 C 1074.1 1266.06 1069.05 1252.54 1070.29 1241.31 C 1070.84 1236.26 1062.71 1224.08 1065.56 1216.77 C 1065.47 1214.86 1051.33 1158.35 1049.69 1151.44 C 1040.17 1111.39 1030.57 1070.61 1021.4 1030.35 C 1013.53 995.804 1001.46 955.903 995.641 921.273 L 995.986 921.103 L 996.906 921.498 C 1004.61 952.24 1011.61 984.341 1019.17 1015.47 C 1022.49 1008.11 1024.39 997.933 1026.22 989.881 C 1031.38 991.134 1036.45 994.499 1039.05 999.17 L 1040.12 998.394 C 1039.91 995.861 1039.85 995.976 1040.49 993.537 C 1044.02 991.832 1057.83 987.915 1061.28 988.718 L 1063 991.676 C 1065.52 976.749 1041.63 916.813 1045.66 908.271 C 1051.93 929.685 1057.7 955.343 1063.01 977.175 L 1084.33 1064.17 C 1087.2 1076.33 1089.84 1090.54 1092.89 1102.27 z" fill="rgb(16,233,217)" transform="translate(0,0)"></path>
<path d="M 1205.46 911.797 C 1206.69 916.907 1203.01 926.431 1201.37 931.808 C 1193.6 957.258 1186.13 982.794 1178.88 1008.4 C 1177.42 1019.4 1178 1027.66 1175.52 1038.73 C 1174.12 1044.97 1164.85 1057.91 1164.35 1061.32 C 1161.38 1081.36 1159.88 1093.83 1148.17 1111.32 C 1146.39 1113.97 1145.28 1132.43 1143.65 1136.73 C 1139.84 1145.69 1134.63 1152.93 1131.08 1162.46 C 1126.3 1175.26 1126.6 1179.18 1126.51 1191.75 C 1126.48 1195.72 1116.32 1211.8 1115.01 1216.63 C 1112.56 1221.92 1111.03 1229.47 1108.96 1233.33 L 1107.65 1232.91 C 1119.72 1189.72 1135.57 1142.86 1148.79 1099.71 L 1205.46 911.797 z" fill="rgb(3,17,49)" transform="translate(0,0)"></path>
<path d="M 1065.56 1216.77 C 1069.14 1229.91 1072.54 1254.38 1093.13 1248.4 C 1098.6 1246.86 1103.14 1243.05 1105.61 1237.94 C 1106.41 1236.32 1107.1 1234.64 1107.65 1232.91 L 1108.96 1233.33 C 1111.51 1248.88 1108.41 1276.04 1087.21 1269.87 C 1074.1 1266.06 1069.05 1252.54 1070.29 1241.31 C 1070.84 1236.26 1062.71 1224.08 1065.56 1216.77 z" fill="rgb(3,17,49)" transform="translate(0,0)"></path>
<path d="M 1227.2 842.053 C 1249.08 894.358 1267.88 954.605 1289.47 1007.58 C 1289.69 1008.11 1290.88 1010.02 1291.08 1010.37 L 1289.57 1010.56 C 1284.04 1005.69 1277.55 976.688 1271.48 966.219 L 1269.68 965.298 C 1270.37 954.23 1252.41 935.309 1252.34 916.41 C 1252.29 904.52 1225.78 853.28 1227.2 842.053 z" fill="rgb(3,17,49)" transform="translate(0,0)"></path>
<path d="M 1647.57 1005.43 C 1649.39 1007.18 1649.74 1007.36 1652.23 1007.82 C 1654.15 1020.86 1638.5 1043.17 1628.29 1050.55 C 1624.94 1052.97 1617.45 1054.79 1615.65 1057.45 C 1614.79 1083.8 1616.18 1114.34 1614.83 1139.69 C 1615.17 1150.44 1616.61 1162.42 1611.33 1172.11 C 1609.96 1174.63 1606.24 1178.62 1605.81 1179.45 C 1604.05 1184.89 1603.02 1180.67 1601.96 1185.26 C 1598.97 1198.31 1578.43 1201.92 1572.46 1188.76 C 1567.99 1178.91 1562.82 1176.99 1567 1165.87 C 1564.71 1157.47 1562.65 1167.89 1560.57 1153.8 C 1555.01 1157.69 1551.22 1172.75 1550.09 1179.34 C 1549.65 1182.05 1549.29 1184.78 1549 1187.51 L 1548.31 1187.9 C 1547.45 1183.44 1547.08 1182.46 1547.52 1178.05 C 1546.8 1187.08 1544.35 1195.19 1544.35 1204.81 C 1544.36 1212.8 1542.07 1221.7 1542.99 1230 C 1542.48 1240.6 1544.15 1268.48 1542.16 1277.28 C 1541.94 1286.08 1542.6 1316.02 1541.18 1322.34 C 1540.53 1325.24 1539.14 1327.93 1537.14 1330.13 C 1529.56 1338.44 1514.66 1337.71 1507.12 1329.66 C 1500.33 1322.4 1501.73 1311.25 1501.63 1302.09 C 1501.58 1297.16 1501.75 1292.23 1501.82 1287.31 C 1499.41 1251.2 1501.42 1196.75 1501.15 1159.05 C 1500.28 1150.8 1500.69 1133.26 1500.7 1124.3 C 1502.04 1092.94 1500.89 1052.88 1501.14 1020.65 L 1542.7 1020.71 L 1554.82 1020.68 C 1577.12 1019.91 1601.12 1020.34 1623.54 1020.34 C 1635.56 1019.49 1642.43 1017.12 1647.57 1005.43 z" fill="rgb(178,48,98)" transform="translate(0,0)"></path>
<path d="M 1647.57 1005.43 C 1649.39 1007.18 1649.74 1007.36 1652.23 1007.82 C 1654.15 1020.86 1638.5 1043.17 1628.29 1050.55 C 1624.94 1052.97 1617.45 1054.79 1615.65 1057.45 C 1614.79 1083.8 1616.18 1114.34 1614.83 1139.69 C 1612.61 1156.47 1609.54 1153.34 1593.35 1153 C 1588.29 1149.36 1582.51 1146.31 1577.28 1142.77 C 1571.02 1138.53 1572.54 1137.66 1569.23 1131.77 L 1568.49 1070.19 C 1568.35 1055.15 1567.82 1037.25 1569.29 1022.49 C 1575.93 1022.59 1580.17 1022.44 1586.79 1021.88 C 1576.14 1021.39 1565.48 1020.99 1554.82 1020.68 C 1577.12 1019.91 1601.12 1020.34 1623.54 1020.34 C 1635.56 1019.49 1642.43 1017.12 1647.57 1005.43 z" fill="url(#Gradient2)" transform="translate(0,0)"></path>
<path d="M 1647.57 1005.43 C 1649.39 1007.18 1649.74 1007.36 1652.23 1007.82 C 1654.15 1020.86 1638.5 1043.17 1628.29 1050.55 C 1624.94 1052.97 1617.45 1054.79 1615.65 1057.45 C 1616.25 1046.33 1614.46 1031.69 1615.54 1021.71 L 1623.54 1020.34 C 1635.56 1019.49 1642.43 1017.12 1647.57 1005.43 z" fill="rgb(3,17,49)" transform="translate(0,0)"></path>
<path d="M 1542.7 1020.71 L 1554.82 1020.68 C 1565.48 1020.99 1576.14 1021.39 1586.79 1021.88 C 1580.17 1022.44 1575.93 1022.59 1569.29 1022.49 C 1567.82 1037.25 1568.35 1055.15 1568.49 1070.19 L 1569.23 1131.77 C 1572.54 1137.66 1571.02 1138.53 1577.28 1142.77 C 1582.51 1146.31 1588.29 1149.36 1593.35 1153 C 1609.54 1153.34 1612.61 1156.47 1614.83 1139.69 C 1615.17 1150.44 1616.61 1162.42 1611.33 1172.11 C 1609.96 1174.63 1606.24 1178.62 1605.81 1179.45 C 1604.05 1184.89 1603.02 1180.67 1601.96 1185.26 C 1598.97 1198.31 1578.43 1201.92 1572.46 1188.76 C 1567.99 1178.91 1562.82 1176.99 1567 1165.87 C 1564.71 1157.47 1562.65 1167.89 1560.57 1153.8 C 1555.01 1157.69 1551.22 1172.75 1550.09 1179.34 C 1549.65 1182.05 1549.29 1184.78 1549 1187.51 L 1548.31 1187.9 C 1547.45 1183.44 1547.08 1182.46 1547.52 1178.05 C 1546.8 1187.08 1544.35 1195.19 1544.35 1204.81 C 1544.36 1212.8 1542.07 1221.7 1542.99 1230 C 1542.48 1240.6 1544.15 1268.48 1542.16 1277.28 C 1540.65 1220.35 1542.88 1162.54 1541.83 1105.51 C 1541.58 1091.57 1541.39 1075.43 1542.2 1061.65 C 1543.55 1050.9 1542 1033.15 1542.7 1020.71 z" fill="rgb(3,17,49)" transform="translate(0,0)"></path>
<path d="M 1569.23 1131.77 C 1572.54 1137.66 1571.02 1138.53 1577.28 1142.77 C 1582.51 1146.31 1588.29 1149.36 1593.35 1153 C 1609.54 1153.34 1612.61 1156.47 1614.83 1139.69 C 1615.17 1150.44 1616.61 1162.42 1611.33 1172.11 C 1609.96 1174.63 1606.24 1178.62 1605.81 1179.45 C 1601.63 1181.87 1596.85 1184.6 1591.95 1184.57 C 1564.72 1184.42 1568.95 1149.53 1569.23 1131.77 z" fill="rgb(82,30,94)" transform="translate(0,0)"></path>
<path d="M 1501.82 1287.31 C 1503.52 1261.26 1501.55 1233.74 1502.37 1207.53 C 1502.54 1202.01 1502.54 1195.66 1502.18 1190.2 C 1504.73 1194.21 1501.71 1210.68 1503.6 1215.41 C 1512.42 1210.1 1531.87 1230.39 1538.54 1214.46 C 1541.06 1208.46 1538.89 1185.9 1540.38 1184.25 L 1541.18 1322.34 C 1540.53 1325.24 1539.14 1327.93 1537.14 1330.13 C 1529.56 1338.44 1514.66 1337.71 1507.12 1329.66 C 1500.33 1322.4 1501.73 1311.25 1501.63 1302.09 C 1501.58 1297.16 1501.75 1292.23 1501.82 1287.31 z" fill="rgb(239,62,103)" transform="translate(0,0)"></path>
<path d="M 1501.14 1020.65 L 1542.7 1020.71 C 1542 1033.15 1543.55 1050.9 1542.2 1061.65 C 1536.96 1052.54 1545.92 1043.97 1526.4 1046.54 C 1519.6 1047.43 1510.08 1050.7 1503.99 1053.73 C 1499.72 1065.38 1503.01 1140.73 1501.15 1159.05 C 1500.28 1150.8 1500.69 1133.26 1500.7 1124.3 C 1502.04 1092.94 1500.89 1052.88 1501.14 1020.65 z" fill="rgb(82,30,94)" transform="translate(0,0)"></path>
<path d="M 499.232 970.244 L 498.08 743.968 L 498.11 687.481 C 498.044 666.135 491.508 636.821 523.179 638.499 C 552.649 640.06 547.324 673.237 547.24 694.827 L 547.066 751.75 C 547.098 822.731 545.969 899.189 547.305 969.803 C 559.09 969.737 575.73 969.23 587.054 970.142 C 562.82 972.017 524.181 970.964 499.146 971.014 C 474.915 971.044 445.795 971.745 421.902 970.632 C 423.967 970.381 428.206 970.373 429.713 968.844 C 432.536 965.979 427.241 817.221 430.631 799.518 C 431.526 794.845 433.593 790.821 436.912 787.398 C 441.218 782.956 446.947 779.963 453.217 779.938 C 460.063 779.91 466.891 782.999 471.622 787.899 C 475.199 791.604 477.077 795.772 477.896 800.819 C 480.792 818.662 478.923 839.003 478.93 857.065 L 478.988 970.281 L 499.232 970.244 z" fill="rgb(8,89,152)" transform="translate(0,0)"></path>
<path d="M 1500.53 970.989 C 1498.67 905.04 1500.38 833.257 1500.69 766.993 L 1500.58 696.295 C 1500.56 684.269 1500.34 672.1 1500.9 660.147 C 1501.28 652.195 1509.21 646.277 1516.85 646.464 C 1528.29 646.744 1535.5 650.476 1540.97 660.316 C 1543.5 693.06 1542.16 745.233 1542.25 779.584 C 1542.7 843.398 1542.79 907.214 1542.51 971.029 L 1500.53 970.989 z" fill="rgb(82,30,94)" transform="translate(0,0)"></path>
<path d="M 622.315 970.647 L 623.02 971.243 C 617.453 972.745 587.89 971.664 579.239 972.462 L 581.029 973.183 C 587.542 982.055 587.411 982.566 592.345 992.371 C 596.038 999.71 604.902 1010.26 610.591 1016.33 L 610.38 1017.45 C 610.119 1018.88 610.172 1018.3 610.157 1019.52 C 618.893 1021.74 646.898 1021.41 654.196 1014.17 C 655.686 1012.69 656.053 1012.47 657.83 1012.43 C 653.767 1017.5 651.574 1018.91 645.491 1021.27 C 637.413 1022.5 619.609 1021.87 610.523 1021.84 L 547.51 1021.68 C 547.586 1040.49 548.63 1063.45 547.95 1081.66 L 546.664 1077.47 C 545.974 1077.21 504.117 1078.97 499.809 1079.19 C 499.126 1092.04 499.818 1107.73 498.885 1119.41 C 497.859 1110.9 498.135 1093.9 498.146 1085.05 C 498.375 1064.1 498.463 1043.15 498.41 1022.2 L 498.721 1021.09 C 476.051 1020.28 448.127 1021.11 425.052 1021.16 C 417.91 1021.08 415.444 1019.97 409.363 1016.2 C 392.502 997.608 397.983 978.003 421.902 970.632 C 445.795 971.745 474.915 971.044 499.146 971.014 C 524.181 970.964 562.82 972.017 587.054 970.142 C 594.357 970.122 616.095 969.714 622.315 970.647 z" fill="rgb(1,248,243)" transform="translate(0,0)"></path>
<path d="M 498.721 1021.09 L 592.996 1020.98 C 608.238 1020.98 630.657 1020.31 645.491 1021.27 C 637.413 1022.5 619.609 1021.87 610.523 1021.84 L 547.51 1021.68 C 547.586 1040.49 548.63 1063.45 547.95 1081.66 L 546.664 1077.47 C 545.974 1077.21 504.117 1078.97 499.809 1079.19 C 499.126 1092.04 499.818 1107.73 498.885 1119.41 C 497.859 1110.9 498.135 1093.9 498.146 1085.05 C 498.375 1064.1 498.463 1043.15 498.41 1022.2 L 498.721 1021.09 z" fill="rgb(8,89,152)" transform="translate(0,0)"></path>
<path d="M 1048.04 1371.99 C 1075.13 1371.3 1112.12 1370.74 1138.43 1372.74 C 1180.08 1375.9 1188.83 1452.75 1137.23 1459.99 L 1065.04 1459.92 L 1064.99 1497.39 L 1048 1497.33 L 1048.04 1371.99 z" fill="rgb(253,252,252)" transform="translate(0,0)"></path>
<path d="M 1064.82 1387.18 C 1082.62 1387.3 1130.18 1383 1143.47 1392.38 C 1149.46 1396.6 1152.57 1402.97 1153.83 1410.05 C 1155.63 1420.21 1153.76 1429.31 1147.89 1437.72 C 1141.9 1441.96 1137.25 1443.92 1129.85 1444.14 C 1108.23 1444.8 1086.22 1444.35 1064.6 1444.21 C 1064.45 1425.2 1064.52 1406.19 1064.82 1387.18 z" fill="rgb(3,17,49)" transform="translate(0,0)"></path>
<path d="M 1567.81 971.047 C 1565.98 916.742 1566.92 860.079 1566.98 805.615 C 1566.99 795.918 1581.75 783.022 1591.35 783.805 C 1600.48 783.82 1612.73 794.051 1614.87 803.303 C 1616.92 817.213 1616.19 832.629 1616.13 846.857 L 1615.65 929.277 C 1615.57 940.32 1614.76 961.262 1615.56 971.033 L 1567.81 971.047 z" fill="rgb(82,30,94)" transform="translate(0,0)"></path>
<path d="M 425.052 1021.16 C 448.127 1021.11 476.051 1020.28 498.721 1021.09 L 498.41 1022.2 C 492.385 1022.05 485.985 1021.52 480.159 1022.71 C 477.293 1029.12 479.275 1086.78 478.158 1099.51 C 478.502 1105.6 479.108 1134.45 478.046 1139.45 C 478.316 1150.76 480.762 1169.01 471.83 1177.38 C 457.762 1190.56 438.113 1183.11 429.098 1167.62 L 429.075 1156.09 C 428.471 1139.9 429.21 1119.83 429.367 1103.36 C 429.169 1094.43 430.211 1054.38 429.12 1049.33 C 429.323 1042.7 430.273 1028.32 428.154 1022.55 L 425.052 1021.16 z" fill="rgb(6,144,167)" transform="translate(0,0)"></path>
<path d="M 425.052 1021.16 C 448.127 1021.11 476.051 1020.28 498.721 1021.09 L 498.41 1022.2 C 492.385 1022.05 485.985 1021.52 480.159 1022.71 C 477.293 1029.12 479.275 1086.78 478.158 1099.51 C 475.838 1092.59 476.454 1079.76 476.51 1072.07 C 465.983 1075.24 443.098 1075.69 431.491 1075.49 C 431.557 1084.59 432.459 1095.06 429.367 1103.36 C 429.169 1094.43 430.211 1054.38 429.12 1049.33 C 429.323 1042.7 430.273 1028.32 428.154 1022.55 L 425.052 1021.16 z" fill="url(#Gradient1)" transform="translate(0,0)"></path>
<path d="M 429.075 1156.09 L 430.46 1148.8 L 430.925 1149.22 L 431.087 1154.58 L 432.488 1155.41 C 441.712 1151.49 455.346 1154.29 465.957 1151.52 C 478.311 1148.29 475.667 1151.34 478.046 1139.45 C 478.316 1150.76 480.762 1169.01 471.83 1177.38 C 457.762 1190.56 438.113 1183.11 429.098 1167.62 L 429.075 1156.09 z" fill="rgb(5,191,198)" transform="translate(0,0)"></path>
<path d="M 592.497 1372.23 L 607.301 1372.07 C 614.309 1379.49 621.215 1390.87 627.079 1399.44 C 637.861 1415.18 648.123 1431.35 659.388 1446.77 C 675.698 1422.52 693.001 1396.19 710.093 1372.64 C 716.013 1372.13 721.55 1372.35 727.48 1372.48 C 728.309 1413.42 727.992 1457.86 727.556 1498.84 L 710.932 1498.78 L 710.997 1424.5 L 711.007 1397.49 C 697.523 1419.89 679.751 1442.79 665.174 1465.19 L 650.284 1465.16 C 645.431 1455.2 633.766 1439.09 627.478 1429.22 C 621.646 1420.07 615.066 1408.46 609.172 1399.86 C 609.032 1431.89 609.859 1466.9 608.661 1498.66 C 603.9 1499.01 596.953 1498.78 592.023 1498.77 C 592.34 1456.82 591.749 1414.04 592.497 1372.23 z" fill="rgb(253,252,252)" transform="translate(0,0)"></path>
<path d="M 498.885 1119.41 C 499.818 1107.73 499.126 1092.04 499.809 1079.19 C 504.117 1078.97 545.974 1077.21 546.664 1077.47 L 547.95 1081.66 C 547.153 1123.27 549.52 1172.62 547.31 1213.11 C 546.636 1212.38 545.962 1211.64 545.288 1210.91 C 535.499 1210.12 524.695 1209.22 514.972 1208.87 C 510.299 1208.7 504.788 1208.15 501.774 1210.35 C 499.771 1214.2 499.644 1217.78 499.041 1222.12 C 497.88 1190.05 498.934 1152.11 498.885 1119.41 z" fill="rgb(6,144,167)" transform="translate(0,0)"></path>
<path d="M 829.955 1371.91 L 843.397 1371.92 C 870.268 1400.21 903.969 1440.05 929.28 1470.19 C 928.983 1437.6 929.005 1405.01 929.348 1372.42 C 935.007 1372.17 940.326 1372.44 945.974 1372.65 L 946.548 1498.32 C 941.622 1498.53 936.349 1498.44 931.389 1498.46 C 904.169 1466.05 872.534 1431.97 846.223 1399.43 C 848.378 1424 846.962 1471.8 846.912 1498.21 L 829.922 1498.24 L 829.955 1371.91 z" fill="rgb(253,252,252)" transform="translate(0,0)"></path>
<path d="M 1428.35 1371.51 C 1437.09 1371.41 1445.83 1371.45 1454.57 1371.62 C 1454.74 1376.59 1454.63 1382.38 1454.64 1387.41 C 1424.31 1387.79 1393.5 1387.55 1363.13 1387.6 L 1363.03 1426.7 C 1390.67 1427.19 1419.49 1426.82 1447.23 1426.83 L 1447.02 1441.79 C 1419.47 1442.24 1390.69 1441.69 1363.05 1441.54 L 1363.06 1482.86 L 1379.5 1482.86 L 1454.96 1482.95 L 1454.95 1498.32 C 1435.76 1499.08 1413.49 1498.11 1394.01 1498.49 C 1383.08 1498.7 1357.87 1499.03 1348 1497.67 C 1344.44 1492.6 1345.65 1386.24 1345.62 1371.84 C 1372.51 1371.16 1401.31 1371.59 1428.35 1371.51 z" fill="rgb(253,252,252)" transform="translate(0,0)"></path>
<path d="M 1232.65 1372.38 C 1254.83 1371 1287.33 1371.88 1310.16 1371.9 L 1310.24 1387.05 C 1285.81 1387.47 1261.54 1387.17 1236.92 1387.75 C 1220.61 1388.13 1213.57 1396.72 1215.36 1413.29 C 1217.27 1430.89 1240.11 1427.9 1253.19 1427.64 C 1277.76 1427.14 1309.91 1423.75 1312.6 1457.03 C 1314.64 1482.26 1301.56 1496.23 1276.8 1498.67 C 1251.51 1499.02 1222.54 1498.96 1197.37 1498.41 C 1197.24 1493.4 1197.42 1487.99 1197.49 1482.94 C 1223.82 1482.32 1250.72 1483.22 1276.73 1482.57 C 1290.05 1482.25 1297.32 1470.11 1295.03 1458.42 C 1288.83 1426.79 1227.28 1455.77 1207.45 1435.55 C 1200.57 1428.53 1198.31 1424.6 1197.14 1414.95 C 1194.23 1389.46 1207.93 1374.76 1232.65 1372.38 z" fill="rgb(253,252,252)" transform="translate(0,0)"></path>
<path d="M 499.041 1222.12 C 499.644 1217.78 499.771 1214.2 501.774 1210.35 C 504.788 1208.15 510.299 1208.7 514.972 1208.87 C 524.695 1209.22 535.499 1210.12 545.288 1210.91 C 545.962 1211.64 546.636 1212.38 547.31 1213.11 C 546.721 1237.77 548.38 1265.72 547.115 1289.44 C 547.667 1302.02 549.509 1315.27 540.621 1325.39 C 536.165 1330.5 529.737 1333.47 522.954 1333.55 C 500.391 1333.67 498.723 1312.29 498.996 1295.73 L 499.041 1222.12 z" fill="rgb(16,233,217)" transform="translate(0,0)"></path>
<path d="M 547.115 1289.44 C 547.667 1302.02 549.509 1315.27 540.621 1325.39 C 536.165 1330.5 529.737 1333.47 522.954 1333.55 C 500.391 1333.67 498.723 1312.29 498.996 1295.73 L 500.316 1293.32 C 502.943 1296.42 496.979 1317.69 505.007 1319.93 C 513.463 1322.28 522.761 1324.32 531.481 1327.18 C 533.4 1327.81 536.089 1320.3 542.844 1319.38 C 547.956 1311.52 543.512 1295.16 547.115 1289.44 z" fill="rgb(1,248,243)" transform="translate(0,0)"></path>
<path d="M 989.612 1372.08 L 1006 1371.94 L 1006.02 1498.24 L 989.047 1498.22 C 989.014 1460.9 987.534 1407.95 989.612 1372.08 z" fill="rgb(253,252,252)" transform="translate(0,0)"></path>
<path d="M 768.836 1372 C 774.485 1371.43 779.346 1371.65 784.994 1371.77 C 785.029 1412.97 785.959 1458.24 784.523 1499.04 L 768.206 1499.04 C 767.353 1459.91 767.486 1411.2 768.836 1372 z" fill="rgb(253,252,252)" transform="translate(0,0)"></path>
<path d="M 409.363 1016.2 C 415.444 1019.97 417.91 1021.08 425.052 1021.16 L 428.154 1022.55 C 430.273 1028.32 429.323 1042.7 429.12 1049.33 C 428.831 1050.15 429.077 1049.71 428.178 1050.51 C 428.659 1036.65 423.719 1044.38 419.959 1039.55 L 420.726 1038.92 C 423.471 1039.69 424.025 1040.25 426.589 1039.72 C 421.567 1032.78 420.255 1029.81 416.902 1021.82 C 416.103 1019.92 412.275 1019.56 410.135 1019.43 C 409.945 1022.08 410.084 1021.46 409.336 1024.05 L 408.1 1024.15 C 407.754 1020.23 407.971 1020 409.363 1016.2 z" fill="rgb(3,17,49)" transform="translate(0,0)"></path>
<metadata><recraft-signature>{"signed_by": "recraft", "signature_b64": "dd3GGCF7cwGCBdaDQ/ReuaB1mkImzvvEwm3ZtEWIPoF+FwnVkIuFazZtfd6/EYiPYxY+zivtjy8HMy4G5p/JCQ==", "signing_algo": "Ed25519", "generation_timestamp": 1777482700, "identifier": "f78e55a5-9786-4a7c-926c-0dd091ca3c2c"}</recraft-signature></metadata></svg>