<svg xmlns="http://www.w3.org/2000/svg" height="1024" preserveAspectRatio="none" style="display: block;" version="1.1" viewBox="0 0 2048 2048" width="1024">
<defs>
	<linearGradient gradientUnits="userSpaceOnUse" id="Gradient1" x1="1038.27" x2="1008.74" y1="709.407" y2="568.902">
		<stop class="stop0" offset="0" stop-color="rgb(123,152,204)" stop-opacity="1"></stop>
		<stop class="stop1" offset="1" stop-color="rgb(194,217,235)" stop-opacity="1"></stop>
	</linearGradient>
	<linearGradient gradientUnits="userSpaceOnUse" id="Gradient2" x1="1308.66" x2="1291.34" y1="707.909" y2="569.088">
		<stop class="stop0" offset="0" stop-color="rgb(110,132,192)" stop-opacity="1"></stop>
		<stop class="stop1" offset="1" stop-color="rgb(166,201,217)" stop-opacity="1"></stop>
	</linearGradient>
	<linearGradient gradientUnits="userSpaceOnUse" id="Gradient3" x1="1453.02" x2="1422.22" y1="709.457" y2="568.458">
		<stop class="stop0" offset="0" stop-color="rgb(100,146,177)" stop-opacity="1"></stop>
		<stop class="stop1" offset="1" stop-color="rgb(163,197,212)" stop-opacity="1"></stop>
	</linearGradient>
	<linearGradient gradientUnits="userSpaceOnUse" id="Gradient4" x1="895.758" x2="877.85" y1="708.029" y2="569.182">
		<stop class="stop0" offset="0" stop-color="rgb(142,162,217)" stop-opacity="1"></stop>
		<stop class="stop1" offset="1" stop-color="rgb(206,218,237)" stop-opacity="1"></stop>
	</linearGradient>
	<linearGradient gradientUnits="userSpaceOnUse" id="Gradient5" x1="1174.57" x2="1146.15" y1="709.328" y2="568.341">
		<stop class="stop0" offset="0" stop-color="rgb(115,143,194)" stop-opacity="1"></stop>
		<stop class="stop1" offset="1" stop-color="rgb(183,211,230)" stop-opacity="1"></stop>
	</linearGradient>
	<linearGradient gradientUnits="userSpaceOnUse" id="Gradient6" x1="1543.17" x2="965.716" y1="1150.74" y2="946.121">
		<stop class="stop0" offset="0" stop-color="rgb(213,43,240)" stop-opacity="1"></stop>
		<stop class="stop1" offset="1" stop-color="rgb(250,117,237)" stop-opacity="1"></stop>
	</linearGradient>
	<linearGradient gradientUnits="userSpaceOnUse" id="Gradient7" x1="1552.95" x2="1099.22" y1="1384.44" y2="1097.7">
		<stop class="stop0" offset="0" stop-color="rgb(66,31,126)" stop-opacity="1"></stop>
		<stop class="stop1" offset="1" stop-color="rgb(146,53,210)" stop-opacity="1"></stop>
	</linearGradient>
	<linearGradient gradientUnits="userSpaceOnUse" id="Gradient8" x1="1523.01" x2="530.749" y1="1125.17" y2="579.449">
		<stop class="stop0" offset="0" stop-color="rgb(66,41,132)" stop-opacity="1"></stop>
		<stop class="stop1" offset="1" stop-color="rgb(255,150,232)" stop-opacity="1"></stop>
	</linearGradient>
	<linearGradient gradientUnits="userSpaceOnUse" id="Gradient9" x1="622.688" x2="710.312" y1="1003.9" y2="1027.1">
		<stop class="stop0" offset="0" stop-color="rgb(255,188,229)" stop-opacity="1"></stop>
		<stop class="stop1" offset="1" stop-color="rgb(233,99,241)" stop-opacity="1"></stop>
	</linearGradient>
	<linearGradient gradientUnits="userSpaceOnUse" id="Gradient10" x1="1156.51" x2="1048.84" y1="1036.35" y2="992.789">
		<stop class="stop0" offset="0" stop-color="rgb(160,47,213)" stop-opacity="1"></stop>
		<stop class="stop1" offset="1" stop-color="rgb(202,90,244)" stop-opacity="1"></stop>
	</linearGradient>
	<linearGradient gradientUnits="userSpaceOnUse" id="Gradient11" x1="705.3" x2="708.7" y1="1207.26" y2="1252.74">
		<stop class="stop0" offset="0" stop-color="rgb(228,172,217)" stop-opacity="1"></stop>
		<stop class="stop1" offset="1" stop-color="rgb(255,121,248)" stop-opacity="1"></stop>
	</linearGradient>
	<linearGradient gradientUnits="userSpaceOnUse" id="Gradient12" x1="1089.91" x2="622.671" y1="1147.61" y2="743.939">
		<stop class="stop0" offset="0" stop-color="rgb(59,24,113)" stop-opacity="1"></stop>
		<stop class="stop1" offset="1" stop-color="rgb(135,78,196)" stop-opacity="1"></stop>
	</linearGradient>
	<linearGradient gradientUnits="userSpaceOnUse" id="Gradient13" x1="1428.06" x2="619.291" y1="1322.29" y2="712.27">
		<stop class="stop0" offset="0" stop-color="rgb(31,14,71)" stop-opacity="1"></stop>
		<stop class="stop1" offset="1" stop-color="rgb(72,29,143)" stop-opacity="1"></stop>
	</linearGradient>
</defs>
<path d="M 0 0 L 2048 0 L 2048 2048 L 0 2048 L 0 0 z" fill="rgb(25,15,71)" transform="translate(0,0)"></path>
<path d="M 707.714 648.746 C 707.535 633.949 704.69 583.122 712.398 573.023 C 715.785 571.185 718.834 570.539 722.667 570.15 C 729.621 569.446 779.466 569.294 783.614 570.956 C 786.893 572.269 788.625 574.922 789.827 578.1 C 794.045 589.253 792.288 650.714 791.717 666.471 C 791.825 679.97 791.843 693.47 791.773 706.97 C 809.035 706.953 827.838 706.556 844.976 707.05 C 870.071 707.716 905.064 707.467 930.026 706.668 C 946.033 706.686 967.721 707.355 983.284 706.381 L 985.436 707.471 C 991.57 706.485 1007.87 706.792 1014.75 706.806 C 1031.98 706.956 1049.2 706.878 1066.42 706.575 C 1082.79 706.514 1102.72 705.917 1118.81 706.651 C 1142.11 707.378 1181.53 707.44 1204.78 706.385 L 1258.8 706.197 C 1286.81 706.076 1316.12 706.998 1343.82 706.441 L 1345.46 707.252 C 1357.17 706.123 1384.2 706.925 1396.97 706.945 C 1410.11 706.969 1472.7 708.553 1481.15 706.221 L 1482.04 706.207 C 1499.65 710.291 1529.78 702.867 1548.11 706.503 C 1617.52 720.269 1612.19 772.413 1611.87 828.234 C 1611.63 871.381 1610.19 916.494 1611.42 958.522 C 1613 998.428 1609.7 1044.79 1611.9 1082.75 C 1612.72 1139.42 1611.43 1196.31 1611.79 1252.97 C 1611.97 1280.5 1612.97 1303.26 1592.08 1324.15 C 1568.43 1348.51 1538.13 1340.9 1507.54 1342.26 L 1435.44 1342.19 C 1426.34 1342.19 1407.61 1341.68 1399.22 1342.4 L 1396 1342.25 L 1395.81 1343.3 L 1395.08 1343.25 C 1394.83 1344.78 1394.9 1346.73 1393.84 1347.05 C 1382.18 1350.64 1365.47 1348.18 1352.06 1350.17 C 1351.93 1376.22 1352.05 1402.27 1352.41 1428.31 C 1352.52 1437.76 1354.13 1462.92 1351.9 1470.76 C 1345 1495.01 1300.6 1501.88 1285.94 1479.69 L 1284.35 1478.28 C 1259.64 1465.29 1264.09 1442.52 1263.71 1419.28 C 1263.33 1396.57 1264.54 1373.25 1263.38 1350.63 C 1248.35 1350.83 1233.93 1349.58 1218.81 1350.28 C 1218.87 1381.47 1218.81 1412.66 1219.56 1443.83 C 1219.73 1450.5 1220.03 1457.22 1219.2 1463.86 C 1215.7 1492.11 1185.65 1496.93 1162.63 1490.86 C 1158.37 1487.06 1155.99 1484.79 1152.1 1480.56 C 1148.44 1479.38 1142.75 1477.39 1140.46 1474.36 C 1123.63 1463.7 1125.42 1445.33 1125.63 1428.01 C 1125.97 1400.03 1125.09 1371.81 1126.04 1343.86 L 1125.12 1343.65 C 1124.91 1345.07 1124.75 1348.4 1123.85 1348.78 C 1114.62 1352.67 1090.69 1350.41 1079.85 1350.97 C 1079.81 1376.84 1080.09 1402.7 1080.67 1428.55 C 1081.05 1446 1086.1 1468.27 1072.56 1480.73 C 1058.72 1493.46 1031.22 1496.77 1015.56 1485.48 C 1014.57 1484.77 1013.13 1481.81 1012.62 1480.64 C 1008.78 1478.58 1005.3 1477.54 1002.43 1474.35 C 983.176 1461.3 986.792 1431 986.821 1410.38 C 986.798 1388.14 986.913 1365.89 987.167 1343.65 C 983.702 1341.9 937.156 1342.81 928.924 1342.73 L 929.056 1409.75 C 929.076 1428.66 932.516 1456.66 918.171 1470.67 C 910.395 1478.22 899.881 1482.27 889.052 1481.89 C 883.069 1481.67 870.207 1479.62 866.411 1474.39 C 854.388 1466.36 851.722 1454.65 851.851 1441.16 C 850.684 1426.74 853.091 1349.93 850.437 1343.33 L 845.59 1341.9 C 839.639 1344.02 795.946 1342.9 786.629 1342.79 C 787.032 1367.07 787.171 1391.35 787.047 1415.62 C 787.019 1428.44 787.642 1442.31 785.701 1454.94 C 781.294 1483.61 735.229 1489.86 719.557 1468.82 C 716.227 1464.69 712.64 1459.71 712.134 1454.33 C 709.753 1429.03 710.924 1400.9 711.206 1375.53 C 710.761 1365.52 711.078 1352.87 711.085 1342.66 C 692.294 1342.97 673.5 1342.97 654.709 1342.66 C 647.099 1342.17 580.46 1342.27 577.323 1343.88 L 576.336 1342.32 L 573.058 1342 L 572.938 1342.85 C 558.096 1343.08 543.253 1343.21 528.409 1343.23 C 499.177 1343.3 474.525 1345.39 451.897 1322.49 C 443.217 1313.82 437.223 1302.83 434.637 1290.84 C 431.539 1276.52 432.645 1237.17 432.649 1220.26 L 432.96 1082.82 C 434.117 1046.3 433.833 1001.07 432.764 964.624 C 431.32 949.128 432.495 914.072 432.593 897.396 L 432.966 781.094 C 433.243 749.419 445.76 724.967 476.139 712.275 C 492.827 705.303 509.136 706.297 526.899 706.43 L 569.234 706.828 C 569.489 683.912 568.982 660.762 569.705 637.874 C 569.59 627.26 567.181 581.899 572.833 575.662 C 579.879 567.887 622.571 569.205 634.128 570.138 C 639.403 570.564 646.921 571.96 650.461 576.376 C 655.458 582.609 652.576 690.295 652.38 706.902 L 707.252 706.878 C 707.839 687.599 707.001 668.213 707.714 648.746 z" fill="url(#Gradient13)" transform="translate(0,0)"></path>
<path d="M 537.471 1218.06 C 535.438 1210.86 531.176 1202.23 530.496 1194.67 C 529.169 1179.89 529.352 1164.39 529.351 1149.54 L 529.665 1076.77 L 530.012 879.266 C 530.147 858.647 532.233 845.11 547.885 829.508 C 554.768 822.677 565.976 815.956 575.882 815.231 C 605.234 813.083 636.006 813.88 665.388 813.935 L 824.563 813.692 L 1429.45 813.463 C 1426.6 814.981 1384.97 813.576 1377.31 814.122 C 1366.08 814.924 1347.58 812.06 1336.02 814.844 C 1333.06 815.556 1330.82 823.033 1328.42 825.259 C 1322.74 830.526 1316.75 835.338 1311.21 840.728 C 1295.18 857.732 1284.48 879.782 1267.09 895.221 C 1258.51 902.844 1263.87 911.974 1262.9 922.924 C 1261.23 941.813 1265.62 972.436 1262.58 990.153 C 1262.2 972.201 1263.59 925.651 1261.31 910.462 C 1261.08 902.039 1260.47 899.991 1258.48 891.783 C 1256.9 918.393 1258.73 947.374 1258.24 974.111 C 1258.1 981.653 1258.8 1002.92 1257.18 1009.56 C 1256.84 1051.87 1257.43 1095.81 1256.44 1137.9 L 1237.61 1137.93 C 1234.18 1137.83 1230.19 1138.21 1226.7 1138.45 C 1224.09 1139.89 1225.38 1139.84 1222.84 1139.29 C 1220.67 1135.92 1221.48 1108.92 1221.49 1102.67 L 1221.98 982.259 C 1221.99 972.961 1223.59 921.968 1218.14 917.621 L 1217.55 918.064 C 1218.19 923.998 1212.6 928.35 1212.53 932.619 C 1212.4 940.535 1207.24 946.453 1205.57 951.755 C 1200.81 966.837 1197.84 982.114 1189.77 996.115 C 1182.78 1008.12 1174.82 1014.15 1169.78 1027.93 C 1167.58 1025.42 1168.91 1025.94 1165.98 1025.71 C 1159.52 1030.77 1162.85 1034.46 1159.81 1040 C 1153.85 1050.83 1143.34 1062.13 1139.58 1073.9 L 1137.83 1072.27 C 1128.47 1081.12 1133.42 1097.22 1127.63 1099.93 L 1126.37 1099.79 C 1124.94 1108.15 1126.09 1133.27 1126 1143 C 1115.83 1143.1 1093.25 1145.08 1085.96 1138.02 C 1080.5 1132.73 1085.2 1093.95 1083.09 1090.04 L 1081.94 1090.07 C 1075.57 1110.66 1078.33 1135.61 1070.45 1156.33 C 1065.23 1170.09 1048.31 1187.33 1038.55 1198.69 C 1034.26 1202.95 1022.77 1210.62 1016.5 1216.46 C 1018.29 1218.46 1018.15 1217.9 1021.02 1219.05 L 1020.73 1220.56 C 1017.22 1222.68 1013.65 1223.42 1013.41 1227.54 L 1011.72 1227.98 C 1015.35 1231.94 1022.75 1232.37 1027.86 1232.57 C 1045.5 1233.3 1158.29 1230.71 1164.33 1234.5 C 1164.48 1234.59 1164.55 1234.76 1164.66 1234.89 C 1144.49 1235.61 1121.38 1234.99 1100.99 1234.98 L 955.484 1234.93 C 930.9 1234.92 902.928 1234.21 878.665 1235.08 C 870.625 1238.09 867.708 1234.64 863.414 1236.72 C 866.326 1238.78 875.535 1237.22 879.739 1240.03 C 872.012 1243.19 801.329 1238.65 789.684 1241.82 C 780.266 1242.44 764.652 1241.95 754.867 1241.94 L 687.502 1241.92 L 620.735 1241.99 C 601.234 1242 574.035 1244.09 556.134 1236.08 C 546.51 1231.77 532.66 1220.28 529.364 1210.06 L 537.471 1218.06 z" fill="url(#Gradient12)" transform="translate(0,0)"></path>
<path d="M 1223.49 895.851 C 1235.08 895.276 1245.67 895.215 1257.26 895.214 C 1257.14 932.758 1256.41 972.159 1257.18 1009.56 C 1256.84 1051.87 1257.43 1095.81 1256.44 1137.9 L 1237.61 1137.93 C 1234.18 1137.83 1230.19 1138.21 1226.7 1138.45 L 1225.09 1137.96 C 1224.65 1137.5 1224.21 1137.04 1223.77 1136.58 C 1223.51 1077.74 1222.55 947.308 1223.49 895.851 z" fill="rgb(156,51,216)" transform="translate(0,0)"></path>
<path d="M 529.364 1210.06 L 537.471 1218.06 C 567.481 1241.26 591.799 1234.03 627.737 1234.96 C 636.975 1235.2 646.341 1234.88 655.589 1234.87 L 799.907 1234.92 C 824.557 1234.91 854.374 1234.08 878.665 1235.08 C 870.625 1238.09 867.708 1234.64 863.414 1236.72 C 866.326 1238.78 875.535 1237.22 879.739 1240.03 C 872.012 1243.19 801.329 1238.65 789.684 1241.82 C 780.266 1242.44 764.652 1241.95 754.867 1241.94 L 687.502 1241.92 L 620.735 1241.99 C 601.234 1242 574.035 1244.09 556.134 1236.08 C 546.51 1231.77 532.66 1220.28 529.364 1210.06 z" fill="url(#Gradient11)" transform="translate(0,0)"></path>
<path d="M 935.962 894.977 C 942.555 894.882 966.45 894.138 971.304 895.848 C 974.054 898.212 974.617 898.448 974.698 902.456 C 976.305 981.805 972.321 1062.08 975.012 1141.35 C 964.867 1141.55 943.588 1144.44 937.615 1136.94 C 934.833 1134.08 936.015 1064.41 936.025 1054.72 L 935.962 894.977 z" fill="rgb(211,107,226)" transform="translate(0,0)"></path>
<path d="M 971.304 895.848 C 974.054 898.212 974.617 898.448 974.698 902.456 C 976.305 981.805 972.321 1062.08 975.012 1141.35 C 964.867 1141.55 943.588 1144.44 937.615 1136.94 C 948.197 1136.73 959.382 1136.9 970.013 1136.88 L 970.377 971.847 C 970.435 954.788 969.295 910.867 971.304 895.848 z" fill="rgb(25,15,71)" transform="translate(0,0)"></path>
<path d="M 1085.98 894.13 L 1119.99 893.871 C 1120.1 937.49 1119 983.968 1120.15 1027.3 C 1122.11 996.537 1120.24 962.024 1121.05 931.089 C 1121.26 922.765 1120.1 900.847 1121.86 894.46 L 1122.88 894.423 C 1125.8 903.408 1124.94 964.596 1124.96 978.926 L 1125.13 1142.02 C 1116.36 1141.65 1092.87 1143.53 1087.65 1136.97 L 1086.63 1136.12 C 1085.35 1130.79 1085.99 1077.79 1086.01 1068.59 C 1086.31 1010.44 1086.3 952.285 1085.98 894.13 z" fill="url(#Gradient10)" transform="translate(0,0)"></path>
<path d="M 1120.15 1027.3 C 1122.11 996.537 1120.24 962.024 1121.05 931.089 C 1121.26 922.765 1120.1 900.847 1121.86 894.46 L 1122.88 894.423 C 1125.8 903.408 1124.94 964.596 1124.96 978.926 L 1125.13 1142.02 C 1116.36 1141.65 1092.87 1143.53 1087.65 1136.97 L 1120.03 1136.96 L 1120.15 1027.3 z" fill="rgb(25,15,71)" transform="translate(0,0)"></path>
<path d="M 791.823 894.671 C 798.595 894.603 821.281 894.027 826.285 895.842 C 828.613 898.806 828.753 898.25 828.909 902.278 C 829.249 911.023 829.112 920.1 829.135 928.854 L 829.326 979.734 C 829.471 1022.71 830.588 1073.31 829.031 1115.95 C 825.603 1119.95 827.683 1123.12 825.965 1128.57 C 825.786 1131.4 825.584 1134 825.568 1136.84 C 815.607 1135.87 801.846 1136.3 791.571 1136.33 C 790.436 1110.98 791.489 1078.68 791.574 1052.71 L 791.823 894.671 z" fill="rgb(211,107,226)" transform="translate(0,0)"></path>
<path d="M 826.285 895.842 C 828.613 898.806 828.753 898.25 828.909 902.278 C 829.249 911.023 829.112 920.1 829.135 928.854 L 829.326 979.734 C 829.471 1022.71 830.588 1073.31 829.031 1115.95 C 825.603 1119.95 827.683 1123.12 825.965 1128.57 C 825.652 1118.64 825.75 1107.98 825.891 1098.01 C 826.842 1030.81 824.67 962.973 826.285 895.842 z" fill="rgb(12,4,61)" transform="translate(0,0)"></path>
<path d="M 649.998 894.271 C 661.125 894.03 672.834 894.173 684.009 894.144 L 684.018 1066.78 C 684.005 1081.65 685.578 1125.36 683.872 1137.03 L 649.409 1136.91 C 649.092 1124.87 649.13 1112.47 649.269 1100.41 C 650.062 1031.88 648.104 962.737 649.998 894.271 z" fill="url(#Gradient9)" transform="translate(0,0)"></path>
<path d="M 685.926 894.528 L 687.317 895.623 C 689.472 899.832 688.021 1120.38 688.119 1140.12 C 677.331 1140.29 666.541 1140.36 655.75 1140.33 L 653.488 1139.34 C 656.225 1136.98 679.988 1137.91 685.136 1137.94 L 685.103 964.356 C 685.095 953.394 684.366 901.804 685.926 894.528 z" fill="rgb(44,5,110)" transform="translate(0,0)"></path>
<path d="M 829.031 1115.95 C 829.367 1123.7 829.295 1133.76 830.016 1141.12 C 823.294 1141.01 800.993 1141.24 796.568 1140.26 L 794.815 1138.02 C 799.055 1136.27 817.767 1138.06 825.568 1136.84 C 825.584 1134 825.786 1131.4 825.965 1128.57 C 827.683 1123.12 825.603 1119.95 829.031 1115.95 z" fill="rgb(44,5,110)" transform="translate(0,0)"></path>
<path d="M 707.714 648.746 C 707.535 633.949 704.69 583.122 712.398 573.023 C 715.785 571.185 718.834 570.539 722.667 570.15 C 729.621 569.446 779.466 569.294 783.614 570.956 C 786.893 572.269 788.625 574.922 789.827 578.1 C 794.045 589.253 792.288 650.714 791.717 666.471 C 791.825 679.97 791.843 693.47 791.773 706.97 C 809.035 706.953 827.838 706.556 844.976 707.05 C 870.071 707.716 905.064 707.467 930.026 706.668 C 946.033 706.686 967.721 707.355 983.284 706.381 L 985.436 707.471 C 991.57 706.485 1007.87 706.792 1014.75 706.806 C 1031.98 706.956 1049.2 706.878 1066.42 706.575 C 1082.79 706.514 1102.72 705.917 1118.81 706.651 C 1142.11 707.378 1181.53 707.44 1204.78 706.385 L 1258.8 706.197 C 1286.81 706.076 1316.12 706.998 1343.82 706.441 L 1345.46 707.252 C 1357.17 706.123 1384.2 706.925 1396.97 706.945 C 1410.11 706.969 1472.7 708.553 1481.15 706.221 L 1482.04 706.207 C 1499.65 710.291 1529.78 702.867 1548.11 706.503 C 1617.52 720.269 1612.19 772.413 1611.87 828.234 C 1611.63 871.381 1610.19 916.494 1611.42 958.522 C 1611.31 961.439 1611.57 965.111 1610.2 967.49 C 1591.47 969.303 1552.36 968.111 1531.64 968.298 C 1529.34 929.977 1532.54 889.626 1531.06 851.063 C 1530.41 833.976 1517.2 807.181 1498.05 808.264 C 1494.83 807.867 1488.57 804.387 1482.95 804.065 C 1472.78 803.484 1462.85 803.74 1452.69 803.795 L 1397.8 804.016 L 1209.66 803.804 C 1178.44 804.883 1141.36 803.862 1109.79 803.878 C 1055.54 803.905 1000.64 804.43 946.447 803.835 C 914.182 804.512 880.249 803.944 847.881 803.918 L 675.729 803.824 L 612.567 803.485 C 584.745 803.303 556.643 799.967 535.394 822.009 C 515.301 842.853 519.328 867.884 518.912 894.345 C 518.546 917.586 519.349 941.181 518.867 964.469 C 490.166 964.263 461.464 964.315 432.764 964.624 C 431.32 949.128 432.495 914.072 432.593 897.396 L 432.966 781.094 C 433.243 749.419 445.76 724.967 476.139 712.275 C 492.827 705.303 509.136 706.297 526.899 706.43 L 569.234 706.828 C 569.489 683.912 568.982 660.762 569.705 637.874 C 569.59 627.26 567.181 581.899 572.833 575.662 C 579.879 567.887 622.571 569.205 634.128 570.138 C 639.403 570.564 646.921 571.96 650.461 576.376 C 655.458 582.609 652.576 690.295 652.38 706.902 L 707.252 706.878 C 707.839 687.599 707.001 668.213 707.714 648.746 z" fill="url(#Gradient8)" transform="translate(0,0)"></path>
<path d="M 707.714 648.746 C 707.535 633.949 704.69 583.122 712.398 573.023 C 715.785 571.185 718.834 570.539 722.667 570.15 C 729.621 569.446 779.466 569.294 783.614 570.956 C 786.893 572.269 788.625 574.922 789.827 578.1 C 794.045 589.253 792.288 650.714 791.717 666.471 C 790.463 674.583 790.917 697.509 790.919 706.999 C 766.375 708.255 733.038 707.628 708.066 707.358 C 708.267 689.107 708.539 666.776 707.714 648.746 z" fill="rgb(201,203,233)" transform="translate(0,0)"></path>
<path d="M 569.705 637.874 C 569.59 627.26 567.181 581.899 572.833 575.662 C 579.879 567.887 622.571 569.205 634.128 570.138 C 639.403 570.564 646.921 571.96 650.461 576.376 C 655.458 582.609 652.576 690.295 652.38 706.902 C 627.644 707.97 594.736 708.019 570 707.13 C 570.047 685.608 570.807 658.974 569.705 637.874 z" fill="rgb(201,203,233)" transform="translate(0,0)"></path>
<path d="M 1532.02 1082.84 C 1558.64 1083.17 1585.27 1083.14 1611.9 1082.75 C 1612.72 1139.42 1611.43 1196.31 1611.79 1252.97 C 1611.97 1280.5 1612.97 1303.26 1592.08 1324.15 C 1568.43 1348.51 1538.13 1340.9 1507.54 1342.26 L 1435.44 1342.19 C 1426.34 1342.19 1407.61 1341.68 1399.22 1342.4 L 1396 1342.25 L 1395.81 1343.3 L 1395.08 1343.25 C 1394.83 1344.78 1394.9 1346.73 1393.84 1347.05 C 1382.18 1350.64 1365.47 1348.18 1352.06 1350.17 C 1351.93 1376.22 1352.05 1402.27 1352.41 1428.31 C 1352.52 1437.76 1354.13 1462.92 1351.9 1470.76 C 1345 1495.01 1300.6 1501.88 1285.94 1479.69 L 1284.35 1478.28 C 1259.64 1465.29 1264.09 1442.52 1263.71 1419.28 C 1263.33 1396.57 1264.54 1373.25 1263.38 1350.63 C 1248.35 1350.83 1233.93 1349.58 1218.81 1350.28 C 1218.87 1381.47 1218.81 1412.66 1219.56 1443.83 C 1219.73 1450.5 1220.03 1457.22 1219.2 1463.86 C 1215.7 1492.11 1185.65 1496.93 1162.63 1490.86 C 1158.37 1487.06 1155.99 1484.79 1152.1 1480.56 C 1148.44 1479.38 1142.75 1477.39 1140.46 1474.36 C 1123.63 1463.7 1125.42 1445.33 1125.63 1428.01 C 1125.97 1400.03 1125.09 1371.81 1126.04 1343.86 L 1125.12 1343.65 C 1124.91 1345.07 1124.75 1348.4 1123.85 1348.78 C 1114.62 1352.67 1090.69 1350.41 1079.85 1350.97 C 1079.81 1376.84 1080.09 1402.7 1080.67 1428.55 C 1081.05 1446 1086.1 1468.27 1072.56 1480.73 C 1058.72 1493.46 1031.22 1496.77 1015.56 1485.48 C 1014.57 1484.77 1013.13 1481.81 1012.62 1480.64 C 1008.78 1478.58 1005.3 1477.54 1002.43 1474.35 C 983.176 1461.3 986.792 1431 986.821 1410.38 C 986.798 1388.14 986.913 1365.89 987.167 1343.65 C 983.702 1341.9 937.156 1342.81 928.924 1342.73 L 929.056 1409.75 C 929.076 1428.66 932.516 1456.66 918.171 1470.67 C 910.395 1478.22 899.881 1482.27 889.052 1481.89 C 883.069 1481.67 870.207 1479.62 866.411 1474.39 C 854.388 1466.36 851.722 1454.65 851.851 1441.16 C 850.684 1426.74 853.091 1349.93 850.437 1343.33 L 845.59 1341.9 L 844.322 1341.67 L 844.456 1340.88 C 851.395 1340.09 866.255 1340.49 873.973 1340.5 L 929.218 1340.58 C 933.68 1340.59 949.253 1341.01 952.551 1340 C 952.149 1335.72 951.719 1340.8 947.773 1337.46 C 951.494 1332.81 955.872 1334.18 960.754 1329.5 C 959.628 1328.55 960.157 1329.08 959.178 1327.9 C 961.598 1325.42 961.896 1324.98 963.758 1322.26 C 961.051 1321.07 961.695 1322 960.889 1319.98 C 961.644 1315.4 973.534 1301.74 976.572 1296.66 C 977.686 1294.8 981.583 1295.76 984.04 1296 C 988.374 1276.12 991.661 1277.04 1006.76 1262.41 C 1007.35 1260.04 1007.61 1259.02 1008.5 1256.77 C 1012.78 1254.73 1026.15 1249.58 1028.17 1246.94 C 1024.5 1240.08 968.158 1247.65 960.276 1243.1 C 970.624 1243.05 980.971 1242.96 991.318 1242.8 C 991.776 1242.81 992.235 1242.81 992.693 1242.82 L 1334.2 1243.04 L 1424.47 1242.84 C 1455.72 1242.75 1490.8 1247.47 1513.87 1223.71 C 1535.42 1201.53 1531.8 1170.72 1531.87 1142.48 L 1532.02 1082.84 z" fill="url(#Gradient7)" transform="translate(0,0)"></path>
<path d="M 1128.7 1347.81 C 1128.94 1345.63 1129.01 1345.54 1129.59 1343.42 C 1133.5 1342.36 1254 1341.4 1262.61 1342.47 L 1263.45 1345.2 L 1263.38 1350.63 C 1248.35 1350.83 1233.93 1349.58 1218.81 1350.28 C 1218.87 1381.47 1218.81 1412.66 1219.56 1443.83 C 1219.73 1450.5 1220.03 1457.22 1219.2 1463.86 C 1215.7 1492.11 1185.65 1496.93 1162.63 1490.86 C 1158.37 1487.06 1155.99 1484.79 1152.1 1480.56 C 1148.44 1479.38 1142.75 1477.39 1140.46 1474.36 C 1123.63 1463.7 1125.42 1445.33 1125.63 1428.01 C 1125.97 1400.03 1125.09 1371.81 1126.04 1343.86 L 1128.22 1343.84 L 1128.7 1347.81 z" fill="rgb(44,5,110)" transform="translate(0,0)"></path>
<path d="M 1206.04 1343.07 C 1219.61 1343.12 1249.75 1343.98 1262.61 1342.47 L 1263.45 1345.2 L 1263.38 1350.63 C 1248.35 1350.83 1233.93 1349.58 1218.81 1350.28 C 1218.87 1381.47 1218.81 1412.66 1219.56 1443.83 C 1219.73 1450.5 1220.03 1457.22 1219.2 1463.86 C 1215.7 1492.11 1185.65 1496.93 1162.63 1490.86 C 1158.37 1487.06 1155.99 1484.79 1152.1 1480.56 C 1175.37 1486.12 1200.11 1476.54 1205.05 1450.97 C 1207.44 1438.65 1206.76 1423.36 1206.81 1410.67 C 1207.11 1388.13 1206.85 1365.59 1206.04 1343.07 z" fill="rgb(12,4,61)" transform="translate(0,0)"></path>
<path d="M 1126.04 1343.86 L 1128.22 1343.84 L 1128.7 1347.81 C 1129.93 1378.32 1128.74 1409.57 1128.86 1440.15 C 1128.94 1461.99 1129.37 1457.22 1140.46 1474.36 C 1123.63 1463.7 1125.42 1445.33 1125.63 1428.01 C 1125.97 1400.03 1125.09 1371.81 1126.04 1343.86 z" fill="rgb(156,51,216)" transform="translate(0,0)"></path>
<path d="M 987.167 1343.65 L 989.859 1342.4 C 1011.97 1344.44 1044.83 1342.21 1068.07 1342.9 C 1076.64 1342.96 1119.8 1341.93 1125.12 1343.65 C 1124.91 1345.07 1124.75 1348.4 1123.85 1348.78 C 1114.62 1352.67 1090.69 1350.41 1079.85 1350.97 C 1079.81 1376.84 1080.09 1402.7 1080.67 1428.55 C 1081.05 1446 1086.1 1468.27 1072.56 1480.73 C 1058.72 1493.46 1031.22 1496.77 1015.56 1485.48 C 1014.57 1484.77 1013.13 1481.81 1012.62 1480.64 C 1008.78 1478.58 1005.3 1477.54 1002.43 1474.35 C 983.176 1461.3 986.792 1431 986.821 1410.38 C 986.798 1388.14 986.913 1365.89 987.167 1343.65 z" fill="rgb(85,5,168)" transform="translate(0,0)"></path>
<path d="M 1068.07 1342.9 C 1076.64 1342.96 1119.8 1341.93 1125.12 1343.65 C 1124.91 1345.07 1124.75 1348.4 1123.85 1348.78 C 1114.62 1352.67 1090.69 1350.41 1079.85 1350.97 C 1079.81 1376.84 1080.09 1402.7 1080.67 1428.55 C 1081.05 1446 1086.1 1468.27 1072.56 1480.73 C 1058.72 1493.46 1031.22 1496.77 1015.56 1485.48 C 1014.57 1484.77 1013.13 1481.81 1012.62 1480.64 C 1028.43 1482.58 1043.75 1481.61 1055.74 1469.55 C 1061.2 1464.12 1064.96 1457.2 1066.53 1449.66 C 1068.35 1441.02 1067.87 1419.58 1067.91 1409.8 L 1068.07 1342.9 z" fill="rgb(12,4,61)" transform="translate(0,0)"></path>
<path d="M 987.167 1343.65 L 989.859 1342.4 C 991.865 1379.86 987.118 1421.18 992.53 1458.32 C 993.227 1463.1 1000.55 1470 1002.43 1474.35 C 983.176 1461.3 986.792 1431 986.821 1410.38 C 986.798 1388.14 986.913 1365.89 987.167 1343.65 z" fill="rgb(156,51,216)" transform="translate(0,0)"></path>
<path d="M 1265.27 1342.22 C 1307.3 1344.26 1354.06 1340.27 1396 1342.25 L 1395.81 1343.3 L 1395.08 1343.25 C 1394.83 1344.78 1394.9 1346.73 1393.84 1347.05 C 1382.18 1350.64 1365.47 1348.18 1352.06 1350.17 C 1351.93 1376.22 1352.05 1402.27 1352.41 1428.31 C 1352.52 1437.76 1354.13 1462.92 1351.9 1470.76 C 1345 1495.01 1300.6 1501.88 1285.94 1479.69 L 1284.35 1478.28 C 1259.64 1465.29 1264.09 1442.52 1263.71 1419.28 C 1263.33 1396.57 1264.54 1373.25 1263.38 1350.63 L 1263.45 1345.2 L 1265.27 1342.22 z" fill="rgb(44,5,110)" transform="translate(0,0)"></path>
<path d="M 1341.92 1343.05 C 1358.41 1343.28 1379.05 1342.15 1395.08 1343.25 C 1394.83 1344.78 1394.9 1346.73 1393.84 1347.05 C 1382.18 1350.64 1365.47 1348.18 1352.06 1350.17 C 1351.93 1376.22 1352.05 1402.27 1352.41 1428.31 C 1352.52 1437.76 1354.13 1462.92 1351.9 1470.76 C 1345 1495.01 1300.6 1501.88 1285.94 1479.69 C 1300.59 1483.07 1316.93 1481.29 1328.2 1470.56 C 1333.27 1465.73 1336.89 1459.59 1338.66 1452.81 C 1340.07 1447.43 1340.38 1441.91 1340.55 1436.37 C 1341.54 1405.28 1340.77 1374.14 1341.92 1343.05 z" fill="rgb(12,4,61)" transform="translate(0,0)"></path>
<path d="M 1263.45 1345.2 L 1265.27 1342.22 C 1270.29 1365.06 1261.79 1433.84 1268.6 1459.69 C 1269.84 1464.4 1279.62 1473.56 1283.89 1477.02 L 1284.35 1478.28 C 1259.64 1465.29 1264.09 1442.52 1263.71 1419.28 C 1263.33 1396.57 1264.54 1373.25 1263.38 1350.63 L 1263.45 1345.2 z" fill="rgb(85,5,168)" transform="translate(0,0)"></path>
<path d="M 853.569 1343.2 C 858.088 1342.46 873.135 1342.72 878.242 1342.72 L 928.924 1342.73 L 929.056 1409.75 C 929.076 1428.66 932.516 1456.66 918.171 1470.67 C 910.395 1478.22 899.881 1482.27 889.052 1481.89 C 883.069 1481.67 870.207 1479.62 866.411 1474.39 C 854.388 1466.36 851.722 1454.65 851.851 1441.16 C 852.867 1432.03 852.129 1422.16 852.377 1413.03 C 852.972 1391.03 851.214 1365.63 852.496 1343.98 L 853.569 1343.2 z" fill="rgb(85,5,168)" transform="translate(0,0)"></path>
<path d="M 851.851 1441.16 C 852.867 1432.03 852.129 1422.16 852.377 1413.03 C 852.972 1391.03 851.214 1365.63 852.496 1343.98 L 853.569 1343.2 L 853.685 1344.43 C 855.704 1368.03 853.304 1398.83 854.333 1423.16 C 854.811 1434.48 853.753 1444.25 856.014 1455.85 C 857.539 1463.68 865.27 1470.81 866.411 1474.39 C 854.388 1466.36 851.722 1454.65 851.851 1441.16 z" fill="rgb(195,44,234)" transform="translate(0,0)"></path>
<path d="M 432.96 1082.82 L 518.952 1082.4 C 519.155 1103.24 519.146 1124.08 518.925 1144.92 C 518.863 1158.92 518.094 1175.96 520.582 1189.55 C 521.46 1194.35 527.128 1204.79 529.364 1210.06 C 532.66 1220.28 546.51 1231.77 556.134 1236.08 C 574.035 1244.09 601.234 1242 620.735 1241.99 L 687.502 1241.92 L 754.867 1241.94 C 764.652 1241.95 780.266 1242.44 789.684 1241.82 C 834.116 1242.25 878.55 1242.35 922.983 1242.13 C 939.973 1242.1 975.16 1241.22 991.318 1242.8 C 980.971 1242.96 970.624 1243.05 960.276 1243.1 C 968.158 1247.65 1024.5 1240.08 1028.17 1246.94 C 1026.15 1249.58 1012.78 1254.73 1008.5 1256.77 C 1007.61 1259.02 1007.35 1260.04 1006.76 1262.41 C 991.661 1277.04 988.374 1276.12 984.04 1296 C 981.583 1295.76 977.686 1294.8 976.572 1296.66 C 973.534 1301.74 961.644 1315.4 960.889 1319.98 C 961.695 1322 961.051 1321.07 963.758 1322.26 C 961.896 1324.98 961.598 1325.42 959.178 1327.9 C 960.157 1329.08 959.628 1328.55 960.754 1329.5 C 955.872 1334.18 951.494 1332.81 947.773 1337.46 C 951.719 1340.8 952.149 1335.72 952.551 1340 C 949.253 1341.01 933.68 1340.59 929.218 1340.58 L 873.973 1340.5 C 866.255 1340.49 851.395 1340.09 844.456 1340.88 L 844.322 1341.67 L 845.59 1341.9 C 839.639 1344.02 795.946 1342.9 786.629 1342.79 C 787.032 1367.07 787.171 1391.35 787.047 1415.62 C 787.019 1428.44 787.642 1442.31 785.701 1454.94 C 781.294 1483.61 735.229 1489.86 719.557 1468.82 C 716.227 1464.69 712.64 1459.71 712.134 1454.33 C 709.753 1429.03 710.924 1400.9 711.206 1375.53 C 710.761 1365.52 711.078 1352.87 711.085 1342.66 C 692.294 1342.97 673.5 1342.97 654.709 1342.66 C 647.099 1342.17 580.46 1342.27 577.323 1343.88 L 576.336 1342.32 L 573.058 1342 L 572.938 1342.85 C 558.096 1343.08 543.253 1343.21 528.409 1343.23 C 499.177 1343.3 474.525 1345.39 451.897 1322.49 C 443.217 1313.82 437.223 1302.83 434.637 1290.84 C 431.539 1276.52 432.645 1237.17 432.649 1220.26 L 432.96 1082.82 z" fill="rgb(156,51,216)" transform="translate(0,0)"></path>
<path d="M 432.96 1082.82 L 518.952 1082.4 C 519.155 1103.24 519.146 1124.08 518.925 1144.92 C 518.863 1158.92 518.094 1175.96 520.582 1189.55 C 521.46 1194.35 527.128 1204.79 529.364 1210.06 C 532.66 1220.28 546.51 1231.77 556.134 1236.08 C 574.035 1244.09 601.234 1242 620.735 1241.99 L 687.502 1241.92 L 754.867 1241.94 C 764.652 1241.95 780.266 1242.44 789.684 1241.82 C 834.116 1242.25 878.55 1242.35 922.983 1242.13 C 939.973 1242.1 975.16 1241.22 991.318 1242.8 C 980.971 1242.96 970.624 1243.05 960.276 1243.1 C 936.404 1242.38 910.584 1242.91 886.594 1242.97 L 766.144 1243.06 L 690.748 1243.23 C 680.933 1243.26 660.434 1242.78 651.332 1243.8 C 664.337 1245.02 714.669 1241.79 721.074 1245.84 L 722.106 1247.6 C 718.089 1251.73 705.769 1255.48 702.562 1260.7 C 694.083 1274.51 683.043 1282.93 672.77 1294.19 C 654.375 1314.35 636.966 1326.57 613.528 1340.09 C 607.883 1343.35 579 1337.18 573.058 1342 L 572.938 1342.85 C 558.096 1343.08 543.253 1343.21 528.409 1343.23 C 499.177 1343.3 474.525 1345.39 451.897 1322.49 C 443.217 1313.82 437.223 1302.83 434.637 1290.84 C 431.539 1276.52 432.645 1237.17 432.649 1220.26 L 432.96 1082.82 z" fill="rgb(211,107,226)" transform="translate(0,0)"></path>
<path d="M 713.236 1342.66 C 733.019 1342.78 768.58 1341.49 786.629 1342.79 C 787.032 1367.07 787.171 1391.35 787.047 1415.62 C 787.019 1428.44 787.642 1442.31 785.701 1454.94 C 781.294 1483.61 735.229 1489.86 719.557 1468.82 C 716.227 1464.69 712.64 1459.71 712.134 1454.33 C 709.753 1429.03 710.924 1400.9 711.206 1375.53 C 712.631 1366.65 710.53 1349.32 713.236 1342.66 z" fill="rgb(85,5,168)" transform="translate(0,0)"></path>
<path d="M 711.206 1375.53 C 712.631 1366.65 710.53 1349.32 713.236 1342.66 C 714.6 1350.43 714.27 1368.16 714.25 1376.5 L 714.116 1429.22 C 714.109 1434.37 714.499 1442.12 714.107 1447.04 C 713.425 1455.58 719.343 1462.69 719.557 1468.82 C 716.227 1464.69 712.64 1459.71 712.134 1454.33 C 709.753 1429.03 710.924 1400.9 711.206 1375.53 z" fill="rgb(195,44,234)" transform="translate(0,0)"></path>
<path d="M 432.764 964.624 C 461.464 964.315 490.166 964.263 518.867 964.469 C 518.847 1002.3 517.811 1044.98 518.952 1082.4 L 432.96 1082.82 C 434.117 1046.3 433.833 1001.07 432.764 964.624 z" fill="rgb(156,51,216)" transform="translate(0,0)"></path>
<path d="M 1611.42 958.522 C 1613 998.428 1609.7 1044.79 1611.9 1082.75 C 1585.27 1083.14 1558.64 1083.17 1532.02 1082.84 L 1531.64 968.298 C 1552.36 968.111 1591.47 969.303 1610.2 967.49 C 1611.57 965.111 1611.31 961.439 1611.42 958.522 z" fill="rgb(44,5,110)" transform="translate(0,0)"></path>
<path d="M 1498.05 808.264 C 1517.2 807.181 1530.41 833.976 1531.06 851.063 C 1532.54 889.626 1529.34 929.977 1531.64 968.298 L 1532.02 1082.84 L 1531.87 1142.48 C 1531.8 1170.72 1535.42 1201.53 1513.87 1223.71 C 1490.8 1247.47 1455.72 1242.75 1424.47 1242.84 L 1334.2 1243.04 L 992.693 1242.82 C 992.235 1242.81 991.776 1242.81 991.318 1242.8 C 975.16 1241.22 939.973 1242.1 922.983 1242.13 C 878.55 1242.35 834.116 1242.25 789.684 1241.82 C 801.329 1238.65 872.012 1243.19 879.739 1240.03 C 875.535 1237.22 866.326 1238.78 863.414 1236.72 C 867.708 1234.64 870.625 1238.09 878.665 1235.08 C 902.928 1234.21 930.9 1234.92 955.484 1234.93 L 1100.99 1234.98 C 1121.38 1234.99 1144.49 1235.61 1164.66 1234.89 C 1185.05 1236 1214.21 1235.23 1235.43 1235.33 C 1284.01 1235.72 1332.59 1235.75 1381.17 1235.44 C 1399.48 1235.3 1417.78 1235.29 1436.09 1235.42 C 1466.79 1235.6 1496.59 1239.94 1515.91 1210.25 C 1520.51 1203.27 1523.33 1195.26 1524.11 1186.94 C 1525.95 1166.8 1525 1130.06 1525.03 1108.95 L 1524.95 960.57 L 1524.83 882.754 C 1524.75 850.342 1529.59 828.148 1498.05 808.264 z" fill="url(#Gradient6)" transform="translate(0,0)"></path>
<path d="M 1257.18 1009.56 C 1258.8 1002.92 1258.1 981.653 1258.24 974.111 C 1258.73 947.374 1256.9 918.393 1258.48 891.783 C 1260.47 899.991 1261.08 902.039 1261.31 910.462 C 1260.26 985.952 1260.91 1065.79 1261.15 1141.39 C 1253.72 1142.06 1242.59 1143.25 1235.39 1142.09 L 1234.07 1140.77 C 1235.34 1138.27 1234.48 1139.41 1237.61 1137.93 L 1256.44 1137.9 C 1257.43 1095.81 1256.84 1051.87 1257.18 1009.56 z" fill="rgb(12,4,61)" transform="translate(0,0)"></path>
<path d="M 1368.09 893.871 C 1377.96 893.719 1388.67 893.356 1398.55 893.432 C 1401.32 893.453 1401.07 893.9 1402.34 895.593 C 1403.57 903.69 1403.08 921.552 1403.11 930.335 L 1403.17 1003.47 C 1403.14 1048.33 1405.97 1095.27 1405.14 1139.51 C 1395.72 1139.72 1382.23 1141.76 1375.73 1135.92 C 1372.61 1136.02 1371.73 1136.31 1368.85 1135.16 C 1366.4 1128.3 1368.21 920.196 1368.09 893.871 z" fill="rgb(156,51,216)" transform="translate(0,0)"></path>
<path d="M 1402.34 895.593 C 1403.57 903.69 1403.08 921.552 1403.11 930.335 L 1403.17 1003.47 C 1403.14 1048.33 1405.97 1095.27 1405.14 1139.51 C 1395.72 1139.72 1382.23 1141.76 1375.73 1135.92 C 1383.86 1135.14 1392.88 1135.36 1401.13 1135.36 L 1401.71 982.862 C 1401.79 957.138 1400.71 920.606 1402.34 895.593 z" fill="rgb(12,4,61)" transform="translate(0,0)"></path>
<path d="M 1127.76 570.409 C 1140.68 570.015 1189.74 568.265 1199.13 571.829 C 1207.45 580.931 1205.01 611.441 1204.99 623.737 L 1204.78 706.385 C 1181.53 707.44 1142.11 707.378 1118.81 706.651 L 1118.83 624.615 C 1118.82 610.378 1118.61 596.011 1119.12 581.786 C 1119.32 576.126 1123.56 573.486 1127.76 570.409 z" fill="url(#Gradient5)" transform="translate(0,0)"></path>
<path d="M 844.976 707.05 C 844.963 685.816 842.272 590.213 847.747 576.87 C 848.679 574.599 849.714 573.245 852.058 572.296 C 858.909 569.522 919.928 569.725 925.973 572.447 C 932.149 580.748 930.283 615.754 930.258 627.424 L 930.026 706.668 C 905.064 707.467 870.071 707.716 844.976 707.05 z" fill="url(#Gradient4)" transform="translate(0,0)"></path>
<path d="M 1396.97 706.945 L 1396.9 628.494 C 1396.85 614.664 1395.05 584.937 1400.29 573.909 C 1407.62 567.619 1427.53 570.708 1436.9 570.419 C 1485.07 568.933 1481.43 568.239 1481.26 614.419 C 1481.07 633.143 1481.07 651.869 1481.24 670.593 L 1481.15 706.221 C 1472.7 708.553 1410.11 706.969 1396.97 706.945 z" fill="url(#Gradient3)" transform="translate(0,0)"></path>
<path d="M 1258.8 706.197 L 1258.78 627.163 C 1258.75 614.93 1256.74 582.266 1263.1 572.908 C 1265.67 571.418 1267.87 570.963 1270.82 570.67 C 1277.49 570.009 1327.66 569.988 1333.59 571.319 C 1336.69 572.014 1339.73 574.795 1341.34 577.503 C 1345.7 584.839 1343.47 689.312 1343.82 706.441 C 1316.12 706.998 1286.81 706.076 1258.8 706.197 z" fill="url(#Gradient2)" transform="translate(0,0)"></path>
<path d="M 983.284 706.381 C 981.335 673.948 984.638 637.894 983.022 605.105 C 982.552 595.565 982.684 582.813 986.985 574.301 C 992.413 569.218 1008.45 570.074 1015.9 570.624 C 1026.9 571.436 1053.2 567.431 1061.71 573.113 C 1068.24 583.488 1066.21 615.092 1066.21 628.204 L 1066.42 706.575 C 1049.2 706.878 1031.98 706.956 1014.75 706.806 C 1007.87 706.792 991.57 706.485 985.436 707.471 L 983.284 706.381 z" fill="url(#Gradient1)" transform="translate(0,0)"></path>
<path d="M 573.058 1342 L 576.336 1342.32 L 577.323 1343.88 C 580.46 1342.27 647.099 1342.17 654.709 1342.66 C 649.988 1348.86 655.657 1441.36 650.053 1456.67 C 642.397 1477.57 614.724 1490.72 595.619 1477.44 C 575.45 1467.84 573.274 1451.25 573.048 1431.09 C 572.72 1401.74 573.641 1372.16 572.938 1342.85 L 573.058 1342 z" fill="rgb(85,5,168)" transform="translate(0,0)"></path>
<path d="M 573.058 1342 L 576.336 1342.32 L 577.323 1343.88 C 577.211 1365.5 574.33 1440.56 579.341 1456.82 C 581.083 1462.47 585.477 1466.82 589.539 1470.92 C 591.075 1472.47 592.694 1473.89 594.288 1475.38 C 595.266 1476.29 594.931 1475.98 595.619 1477.44 C 575.45 1467.84 573.274 1451.25 573.048 1431.09 C 572.72 1401.74 573.641 1372.16 572.938 1342.85 L 573.058 1342 z" fill="rgb(195,44,234)" transform="translate(0,0)"></path>
<path d="M 1399.22 1342.4 C 1407.61 1341.68 1426.34 1342.19 1435.44 1342.19 L 1507.54 1342.26 C 1500.15 1343.53 1483.29 1343.13 1475.18 1343.11 L 1474.49 1411.91 C 1474.46 1422.63 1474.77 1435.44 1474.45 1445.87 C 1474.06 1458.9 1452.78 1481.54 1439.09 1480.5 C 1432.96 1480.03 1416.03 1482.14 1412.11 1477.69 C 1410.81 1476.65 1409.56 1475.56 1408.35 1474.41 C 1392.81 1459.39 1396.09 1432.13 1396.06 1411.88 C 1396.13 1389.02 1396.05 1366.16 1395.81 1343.3 L 1396 1342.25 L 1399.22 1342.4 z" fill="rgb(44,5,110)" transform="translate(0,0)"></path>
<path d="M 1396 1342.25 L 1399.22 1342.4 L 1399.26 1405.89 C 1399.23 1422.18 1398.18 1443.65 1401.29 1459.39 C 1402.46 1465.27 1409.04 1472.54 1412.11 1477.69 C 1410.81 1476.65 1409.56 1475.56 1408.35 1474.41 C 1392.81 1459.39 1396.09 1432.13 1396.06 1411.88 C 1396.13 1389.02 1396.05 1366.16 1395.81 1343.3 L 1396 1342.25 z" fill="rgb(85,5,168)" transform="translate(0,0)"></path>
<path d="M 1481.24 670.593 C 1485.03 655.005 1479.76 590.72 1483.65 584.075 L 1485.55 584.446 C 1488.17 588.936 1489.21 696.257 1487.34 705.156 C 1484.78 706.239 1484.85 706.112 1482.04 706.207 L 1481.15 706.221 L 1481.24 670.593 z" fill="rgb(12,4,61)" transform="translate(0,0)"></path>
<metadata><recraft-signature>{"signed_by": "recraft", "signature_b64": "4l52AhkGrBVtJak30iwAX5GogQfavJccDmQ2exL56je5GGOqceZAbyhTxpdldsyNi61Q6Tv62dReY4qKNpoOBQ==", "signing_algo": "Ed25519", "generation_timestamp": 1777482715, "identifier": "b0bbeda0-1419-48a2-b172-8f76162ab724"}</recraft-signature></metadata></svg>