<svg xmlns="http://www.w3.org/2000/svg" height="1024" preserveAspectRatio="none" style="display: block;" version="1.1" viewBox="0 0 2048 2048" width="1024">
<defs>
	<linearGradient gradientUnits="userSpaceOnUse" id="Gradient1" x1="1442.27" x2="497.597" y1="790.374" y2="1047.54">
		<stop class="stop0" offset="0" stop-color="rgb(39,158,122)" stop-opacity="1"></stop>
		<stop class="stop1" offset="1" stop-color="rgb(96,184,162)" stop-opacity="1"></stop>
	</linearGradient>
</defs>
<path d="M 0 0 L 2048 0 L 2048 2048 L 0 2048 L 0 0 z" fill="rgb(14,31,44)" transform="translate(0,0)"></path>
<path d="M 992.819 505.893 C 1004.31 504.466 1017.99 504.933 1029.6 504.938 C 1189.96 505.005 1351.28 552.266 1487.2 637.118 C 1507.18 649.591 1533.19 665.81 1551.09 681.615 C 1561.16 688.763 1573.77 699.645 1583.49 707.601 C 1630.05 745.039 1672.52 787.29 1710.21 833.651 C 1714.11 838.37 1718.3 843.207 1721.93 848.105 C 1729.19 858.119 1734.8 862.951 1724.68 873.342 C 1703.7 894.876 1682.28 915.755 1661.43 937.402 C 1655.99 943.054 1637.9 964.872 1630.44 964.706 C 1622.69 959.776 1604.03 930.165 1596.37 920.443 C 1572.7 890.396 1546.65 864.44 1518.34 838.638 C 1341.63 675.461 1095.67 610.204 861.316 664.315 C 715.536 696.621 575.982 781.013 474.915 889.857 C 452.379 914.127 433.591 938.609 413.216 964.691 C 406.713 957.823 398.128 949.217 392.02 942.241 C 365.428 914.354 338.982 886.328 312.682 858.165 C 320.241 850.236 330.978 835.863 338.429 826.824 C 350.781 811.945 363.693 797.54 377.135 783.639 C 520.699 632.504 712.564 536.288 919.552 511.628 C 942.928 509.004 969.298 506.332 992.819 505.893 z" fill="rgb(24,240,142)" transform="translate(0,0)"></path>
<path d="M 992.819 505.893 C 1004.31 504.466 1017.99 504.933 1029.6 504.938 C 1189.96 505.005 1351.28 552.266 1487.2 637.118 C 1507.18 649.591 1533.19 665.81 1551.09 681.615 C 1550.71 682.147 1550.34 682.679 1549.96 683.211 C 1548.4 685.69 1537.05 676.768 1534.29 674.933 C 1494.97 648.692 1455.16 627.259 1411.34 609.532 C 1314.25 569.316 1210.74 546.859 1105.71 543.228 C 1077.66 542.247 1050.44 544.126 1022.77 544.043 C 790.451 562.435 590.713 663.895 446.792 849.721 C 429.343 872.251 414.529 897.179 401.414 922.343 C 398.063 928.772 396.089 936.178 392.02 942.241 C 365.428 914.354 338.982 886.328 312.682 858.165 C 320.241 850.236 330.978 835.863 338.429 826.824 C 350.781 811.945 363.693 797.54 377.135 783.639 C 520.699 632.504 712.564 536.288 919.552 511.628 C 942.928 509.004 969.298 506.332 992.819 505.893 z" fill="rgb(137,254,215)" transform="translate(0,0)"></path>
<path d="M 992.819 505.893 C 1004.31 504.466 1017.99 504.933 1029.6 504.938 C 1189.96 505.005 1351.28 552.266 1487.2 637.118 C 1507.18 649.591 1533.19 665.81 1551.09 681.615 C 1550.71 682.147 1550.34 682.679 1549.96 683.211 C 1548.4 685.69 1537.05 676.768 1534.29 674.933 C 1494.97 648.692 1455.16 627.259 1411.34 609.532 C 1314.25 569.316 1210.74 546.859 1105.71 543.228 C 1077.66 542.247 1050.44 544.126 1022.77 544.043 C 1037.7 539.825 1078.9 541.027 1095.18 541.36 C 1229.14 544.101 1362.99 577.686 1481.35 640.697 C 1487.63 644.043 1529.9 669.947 1531.33 670.228 C 1529.38 665.798 1502.16 649.212 1496.39 645.494 C 1360.13 557.685 1196.83 507.21 1034.46 507.126 C 1022.3 507.119 1005.79 507.016 993.958 506 L 992.819 505.893 z" fill="rgb(69,252,196)" transform="translate(0,0)"></path>
<path d="M 492.291 1037.92 C 528.577 989.614 555.691 958.856 600.734 918.394 C 726.367 803.316 892.751 743.167 1062.93 751.309 C 1177.73 757.649 1291.88 800.82 1386.36 865.254 C 1417.31 886.36 1467.01 927.338 1491.64 954.863 C 1507.99 971.099 1523.61 989.46 1539.02 1006.72 C 1544.91 1013.32 1558.2 1025.98 1558.07 1034.74 C 1557.92 1044.9 1545.43 1054.12 1538.82 1060.83 C 1514.14 1083.84 1491.42 1108.84 1467.49 1132.61 C 1465.09 1134.99 1463.98 1136.03 1460.83 1136.55 C 1451.73 1133.49 1443.43 1116.66 1437.11 1108.52 C 1420.58 1086.9 1402.64 1066.4 1383.41 1047.14 C 1225.62 889.624 996.579 851.053 797.393 950.522 C 713.544 992.395 635.733 1059.26 586.206 1139.14 L 551.598 1101.85 C 533.372 1081.13 511.28 1058.61 492.291 1037.92 z" fill="rgb(26,131,93)" transform="translate(0,0)"></path>
<path d="M 492.291 1037.92 C 528.577 989.614 555.691 958.856 600.734 918.394 C 726.367 803.316 892.751 743.167 1062.93 751.309 C 1177.73 757.649 1291.88 800.82 1386.36 865.254 C 1417.31 886.36 1467.01 927.338 1491.64 954.863 L 1489.99 956.27 C 1484.95 954.172 1453.81 927.017 1446.04 921.29 C 1422.79 904.142 1401.66 888.8 1376.45 874.305 C 1211.14 778.961 1010.71 766.56 834.899 840.799 C 712.238 891.063 611.705 983.701 551.598 1101.85 C 533.372 1081.13 511.28 1058.61 492.291 1037.92 z" fill="url(#Gradient1)" transform="translate(0,0)"></path>
<path d="M 668.384 1215.7 C 697.946 1158.83 740.279 1108.68 794.429 1073.82 C 888.477 1012.12 1003.49 991.1 1113.28 1015.55 C 1194.09 1033.45 1271.71 1077.98 1327.8 1139 C 1335.36 1147.23 1347.87 1161.54 1353.71 1170.68 C 1360.33 1176.09 1367.9 1190.05 1372.88 1197.58 C 1377.29 1204.26 1386.27 1215.29 1379.1 1222.83 C 1345.78 1257.91 1309.95 1290.74 1277.08 1326.31 C 1274.55 1329.05 1269.44 1333.96 1265.83 1334.3 C 1260.89 1327.79 1257.37 1312.13 1253.99 1303.95 C 1250.85 1296.36 1247.87 1290.2 1243.8 1282.96 C 1205.66 1215.31 1137.97 1169.49 1060.99 1159.21 C 995.168 1150.41 923.479 1167.48 870.412 1208.07 C 825.704 1242.26 800.832 1276.6 778.161 1327.39 C 757.918 1307.09 739.054 1286.46 717.962 1266.78 C 701.149 1250.27 685.748 1232.19 668.384 1215.7 z" fill="rgb(26,131,93)" transform="translate(0,0)"></path>
<path d="M 668.384 1215.7 C 697.946 1158.83 740.279 1108.68 794.429 1073.82 C 888.477 1012.12 1003.49 991.1 1113.28 1015.55 C 1194.09 1033.45 1271.71 1077.98 1327.8 1139 C 1335.36 1147.23 1347.87 1161.54 1353.71 1170.68 L 1351.6 1171.04 C 1326.8 1149.53 1300.39 1127.33 1272.49 1109.87 C 1113.16 1010.14 892.02 1045.8 770.578 1188.73 C 757.878 1203.68 746.63 1219.66 735.99 1236.09 C 732.28 1241.83 721.053 1263.41 717.962 1266.78 C 701.149 1250.27 685.748 1232.19 668.384 1215.7 z" fill="rgb(73,135,130)" transform="translate(0,0)"></path>
<path d="M 1014.28 1251.18 C 1027.83 1250.02 1041.47 1250.76 1054.82 1253.36 C 1128.07 1267.66 1178.87 1334.72 1172.81 1409.11 C 1166.75 1483.49 1105.75 1541.44 1031.15 1543.69 C 1006.73 1544.42 982.521 1539.04 960.714 1528.04 C 902.2 1498.51 870.408 1433.71 882.857 1369.36 C 895.306 1305.01 948.97 1256.75 1014.28 1251.18 z" fill="rgb(137,254,215)" transform="translate(0,0)"></path>
<path d="M 1054.82 1253.36 C 1128.07 1267.66 1178.87 1334.72 1172.81 1409.11 C 1166.75 1483.49 1105.75 1541.44 1031.15 1543.69 C 1031.44 1529.76 1030.31 1512.2 1029.71 1498.09 C 1018.62 1497.74 1007.61 1496.04 996.937 1493.01 C 999.776 1479.08 1017.31 1425.72 1024.02 1412.79 C 1028.39 1389.81 1033.06 1366.89 1038.03 1344.03 C 1040.73 1331.1 1044.1 1313.18 1047.88 1300.77 L 1047.76 1300.08 C 1049.97 1284.41 1052.89 1269.21 1054.82 1253.36 z" fill="rgb(24,240,142)" transform="translate(0,0)"></path>
<path d="M 1047.88 1300.77 C 1135.7 1322.11 1150.84 1437.48 1076.18 1484.75 C 1065.39 1491.58 1049.67 1495.7 1037.16 1497.17 L 1029.71 1498.09 C 1018.62 1497.74 1007.61 1496.04 996.937 1493.01 C 999.776 1479.08 1017.31 1425.72 1024.02 1412.79 C 1028.39 1389.81 1033.06 1366.89 1038.03 1344.03 C 1040.73 1331.1 1044.1 1313.18 1047.88 1300.77 z" fill="rgb(16,176,101)" transform="translate(0,0)"></path>
<path d="M 996.937 1493.01 C 999.776 1479.08 1017.31 1425.72 1024.02 1412.79 C 1026.42 1426.09 1025.41 1487.53 1029.56 1496.47 C 1032.3 1496.8 1034.38 1497.02 1037.16 1497.17 L 1029.71 1498.09 C 1018.62 1497.74 1007.61 1496.04 996.937 1493.01 z" fill="rgb(15,200,111)" transform="translate(0,0)"></path>
<path d="M 1027.02 1299.24 C 1033.93 1299.45 1040.85 1299.73 1047.76 1300.08 L 1047.88 1300.77 C 1044.1 1313.18 1040.73 1331.1 1038.03 1344.03 C 1033.06 1366.89 1028.39 1389.81 1024.02 1412.79 C 1017.31 1425.72 999.776 1479.08 996.937 1493.01 L 995.697 1493.25 C 985.563 1489.34 976.193 1483.68 968.011 1476.54 C 899.929 1417.26 934.023 1304.79 1027.02 1299.24 z" fill="rgb(24,240,142)" transform="translate(0,0)"></path>
<path d="M 995.697 1493.25 L 996.937 1493.01 C 1007.61 1496.04 1018.62 1497.74 1029.71 1498.09 C 1030.31 1512.2 1031.44 1529.76 1031.15 1543.69 C 1006.73 1544.42 982.521 1539.04 960.714 1528.04 C 964.61 1527.78 969.6 1530.03 972.987 1531.84 C 973.656 1530.51 974.134 1529.65 975.52 1529.04 C 985.739 1524.53 991.701 1504.17 995.697 1493.25 z" fill="rgb(69,252,196)" transform="translate(0,0)"></path>
<path d="M 1014.28 1251.18 C 1027.83 1250.02 1041.47 1250.76 1054.82 1253.36 C 1052.89 1269.21 1049.97 1284.41 1047.76 1300.08 C 1040.85 1299.73 1033.93 1299.45 1027.02 1299.24 C 1027.01 1282.29 1026.84 1266.64 1025.89 1249.74 L 1014.28 1251.18 z" fill="rgb(69,252,196)" transform="translate(0,0)"></path>
<metadata><recraft-signature>{"signed_by": "recraft", "signature_b64": "xGahcWXOm9tqEsYFdrxls8gomjkIzNiEEpnUjcwb7pOJqWl94u/9EJnflcQqyiHGt9BzWAURHoY7mkoIPy7ABQ==", "signing_algo": "Ed25519", "generation_timestamp": 1777482739, "identifier": "37b7f2b6-a746-4ce9-8f4e-100049f39ea0"}</recraft-signature></metadata></svg>